<?xml version="1.0" standalone="no"?>
<!DOCTYPE svg PUBLIC "-//W3C//DTD SVG 20010904//EN"
 "http://www.w3.org/TR/2001/REC-SVG-20010904/DTD/svg10.dtd">
<svg version="1.0" xmlns="http://www.w3.org/2000/svg"
 width="1001.000000pt" height="1001.000000pt" viewBox="0 0 1001.000000 1001.000000"
 preserveAspectRatio="xMidYMid meet">
<metadata>
Created by potrace 1.14, written by Peter Selinger 2001-2017
</metadata>
<g transform="translate(0.000000,1001.000000) scale(0.100000,-0.100000)"
fill="#000000" stroke="none">
<path d="M2733 9990 c-13 -5 -23 -7 -23 -3 0 3 -7 0 -15 -7 -8 -7 -15 -9 -15
-6 0 4 -7 0 -16 -8 -8 -9 -22 -16 -30 -16 -8 0 -13 -3 -11 -7 3 -10 -46 -59
-55 -55 -5 1 -7 -1 -6 -5 1 -5 -3 -18 -10 -29 -6 -12 -8 -25 -4 -29 4 -5 2 -5
-4 -2 -16 9 -53 -70 -56 -120 -1 -7 -5 -13 -10 -13 -5 0 -7 -4 -3 -9 3 -5 1
-12 -4 -16 -5 -3 -8 -14 -6 -25 2 -11 0 -20 -6 -20 -5 0 -9 -5 -9 -11 0 -5 4
-7 10 -4 6 3 7 -1 4 -9 -3 -9 -11 -16 -18 -16 -6 0 -4 -5 4 -10 8 -5 10 -10 4
-10 -5 0 -9 -18 -8 -40 1 -24 -3 -40 -10 -40 -7 0 -7 -3 -1 -8 6 -4 10 -25 10
-47 0 -22 -4 -43 -10 -47 -7 -5 -6 -11 1 -15 6 -5 10 -36 10 -72 -1 -44 3 -65
12 -69 11 -4 11 -6 0 -13 -7 -5 -8 -9 -3 -9 6 0 11 -19 12 -41 2 -23 8 -49 15
-57 10 -13 10 -14 1 -8 -7 4 -13 2 -13 -3 0 -6 5 -11 11 -11 6 0 9 -9 6 -20
-4 -14 0 -20 11 -21 11 0 12 -3 5 -6 -10 -3 -9 -12 3 -35 12 -22 12 -28 2 -22
-10 6 -11 5 -1 -8 7 -8 10 -18 6 -21 -3 -4 -1 -7 6 -7 7 0 10 -4 6 -9 -3 -5
-1 -12 5 -16 6 -4 8 -11 5 -16 -4 -5 -1 -9 5 -9 6 0 8 -5 5 -11 -4 -5 1 -20
12 -31 10 -12 12 -18 5 -14 -11 7 -11 4 0 -15 7 -13 18 -27 23 -31 6 -4 6 -8
1 -8 -4 0 -1 -12 9 -26 11 -18 13 -24 4 -19 -8 4 -4 -2 9 -14 12 -12 22 -27
22 -34 0 -7 -4 -6 -10 3 -7 11 -10 12 -10 2 0 -8 8 -16 19 -19 12 -3 17 -12
15 -28 -1 -18 2 -22 14 -18 10 4 13 2 8 -5 -4 -7 -14 -12 -22 -12 -8 0 -12 -4
-9 -10 4 -6 -1 -7 -11 -3 -10 4 -15 2 -11 -3 3 -6 -3 -16 -15 -23 -11 -7 -17
-8 -14 -2 4 7 1 8 -8 5 -9 -3 -14 -9 -12 -13 2 -3 -8 -15 -23 -26 -24 -18 -25
-18 -11 0 14 17 14 17 -7 5 -12 -8 -20 -17 -18 -20 2 -3 -5 -12 -17 -19 -16
-10 -19 -10 -13 1 3 7 -3 3 -14 -10 -11 -13 -24 -23 -28 -23 -4 -1 -7 -5 -5
-11 1 -5 -2 -7 -7 -4 -5 4 -20 -4 -32 -16 -12 -13 -19 -16 -15 -8 5 9 2 9 -7
-2 -8 -10 -17 -15 -20 -11 -4 3 -7 -1 -7 -11 0 -9 -4 -15 -8 -12 -5 3 -19 -4
-30 -15 -12 -11 -22 -17 -22 -14 0 3 -6 0 -14 -7 -8 -7 -12 -15 -11 -18 2 -3
-10 -12 -26 -19 -18 -8 -26 -17 -22 -24 4 -7 -2 -5 -13 3 -10 8 -16 11 -12 6
7 -9 -22 -46 -37 -46 -6 0 -16 -9 -23 -21 -7 -12 -16 -18 -19 -15 -4 3 -13 -3
-20 -14 -8 -11 -19 -17 -25 -14 -6 4 -8 2 -5 -3 4 -6 0 -14 -9 -17 -8 -3 -12
-11 -8 -17 4 -8 3 -9 -4 -5 -7 4 -23 -5 -37 -20 -14 -15 -25 -23 -26 -18 0 5
-5 -2 -10 -15 -6 -15 -14 -21 -25 -17 -8 3 -12 2 -9 -4 3 -6 -1 -13 -9 -16 -9
-3 -13 -10 -10 -15 3 -5 -5 -9 -17 -9 -12 0 -20 -3 -16 -6 8 -8 -16 -33 -25
-27 -5 2 -8 -3 -8 -11 0 -8 -9 -17 -20 -21 -11 -3 -19 -9 -17 -13 1 -4 -2 -8
-7 -9 -5 -1 -14 -12 -20 -25 -6 -12 -22 -28 -34 -34 -13 -6 -24 -15 -25 -20
-1 -5 -5 -8 -9 -6 -5 1 -8 -5 -8 -13 0 -8 -13 -21 -30 -30 -16 -9 -30 -18 -30
-21 0 -3 6 -2 13 2 6 3 0 -5 -15 -20 -15 -14 -33 -26 -40 -26 -10 0 -10 -2 1
-9 11 -7 10 -10 -6 -15 -10 -3 -27 -20 -37 -36 -9 -17 -22 -27 -28 -24 -7 4
-8 2 -4 -4 4 -7 2 -12 -4 -12 -7 0 -9 -7 -6 -16 3 -8 2 -13 -3 -10 -10 7 -44
-28 -35 -36 3 -4 -4 -9 -15 -13 -12 -3 -19 -10 -16 -15 3 -5 -3 -15 -13 -22
-10 -7 -21 -21 -25 -31 -4 -11 -12 -15 -19 -11 -7 5 -9 2 -6 -8 4 -8 -2 -20
-13 -27 -11 -6 -17 -16 -14 -21 3 -5 -3 -11 -14 -15 -11 -3 -24 -19 -30 -36
-5 -16 -17 -32 -25 -35 -9 -3 -14 -10 -11 -14 3 -4 -2 -11 -11 -14 -9 -3 -12
-11 -8 -18 5 -8 2 -9 -11 -4 -15 5 -16 4 -5 -9 10 -12 10 -15 -4 -15 -10 0
-14 -4 -11 -10 3 -5 1 -10 -5 -10 -6 0 -9 -3 -7 -7 6 -10 -19 -34 -26 -27 -3
3 -4 -3 -3 -13 0 -10 -5 -17 -12 -15 -8 1 -11 -2 -8 -7 3 -5 -4 -20 -15 -35
-11 -14 -17 -26 -12 -26 4 0 0 -5 -9 -11 -10 -5 -18 -19 -18 -30 0 -11 -3 -18
-8 -15 -4 2 -16 -15 -26 -40 -10 -24 -23 -42 -29 -41 -6 1 -12 -5 -12 -13 -2
-25 -17 -50 -26 -44 -5 3 -6 -2 -3 -10 3 -9 1 -16 -6 -16 -6 0 -8 -4 -5 -10 3
-5 1 -10 -6 -10 -6 0 -9 -8 -6 -20 3 -11 2 -18 -3 -15 -10 6 -32 -20 -23 -28
3 -4 1 -7 -6 -7 -7 0 -9 -4 -6 -10 3 -5 0 -10 -7 -10 -9 0 -9 -3 2 -10 13 -8
12 -10 -4 -10 -12 0 -16 -5 -13 -14 3 -8 3 -16 -1 -18 -14 -6 -61 -95 -55
-102 4 -3 -2 -13 -13 -21 -10 -8 -14 -15 -9 -15 6 0 4 -4 -3 -9 -7 -4 -14 -17
-15 -29 0 -12 -7 -24 -14 -26 -6 -3 -10 -14 -8 -26 2 -11 0 -18 -4 -16 -4 3
-14 -13 -21 -34 -7 -22 -18 -40 -23 -40 -5 0 -3 -8 4 -17 10 -11 10 -14 2 -9
-9 5 -13 0 -13 -14 0 -12 -4 -18 -10 -15 -6 4 -10 -6 -10 -23 0 -16 -7 -35
-15 -42 -8 -7 -13 -16 -10 -20 8 -12 -6 -41 -16 -34 -5 3 -6 -2 -3 -10 4 -10
1 -16 -7 -16 -11 0 -11 -2 -1 -9 10 -6 10 -10 -2 -21 -9 -7 -14 -16 -11 -20 3
-5 1 -11 -5 -15 -5 -3 -10 -16 -10 -29 0 -12 -5 -27 -12 -34 -9 -9 -9 -12 2
-12 9 0 8 -5 -6 -15 -10 -8 -15 -15 -10 -15 5 0 3 -7 -4 -15 -10 -12 -10 -15
1 -15 10 -1 9 -4 -3 -11 -10 -5 -15 -16 -12 -24 4 -8 1 -15 -6 -15 -6 0 -9 -4
-6 -8 3 -5 -1 -20 -9 -35 -10 -20 -11 -27 -2 -27 7 0 6 -4 -3 -10 -8 -5 -11
-10 -6 -10 4 0 1 -12 -9 -26 -14 -21 -14 -28 -3 -42 11 -13 11 -14 -1 -7 -11
6 -13 1 -9 -23 3 -24 1 -29 -7 -22 -9 7 -12 5 -12 -7 0 -51 -3 -64 -15 -57
-10 6 -10 5 -1 -7 8 -9 9 -20 3 -29 -6 -8 -10 -31 -10 -50 0 -23 -3 -31 -9
-21 -5 8 -8 -2 -6 -27 1 -28 -2 -43 -13 -47 -11 -4 -12 -8 -2 -20 7 -8 8 -15
3 -15 -5 0 -9 -18 -9 -39 1 -22 -2 -37 -6 -35 -4 3 -6 -9 -4 -26 2 -17 0 -33
-5 -36 -5 -3 -7 -18 -5 -34 2 -17 -1 -30 -6 -30 -6 0 -8 -9 -5 -20 3 -11 2
-20 -2 -20 -4 0 -7 -15 -6 -32 1 -18 -1 -45 -5 -59 -4 -14 -3 -34 2 -44 7 -12
7 -16 0 -11 -5 3 -13 -2 -16 -11 -4 -9 -1 -20 6 -25 10 -6 10 -8 -2 -8 -13 0
-13 -1 0 -10 8 -5 10 -10 5 -10 -6 0 -10 -21 -10 -46 1 -25 -3 -48 -8 -51 -5
-3 -3 -9 4 -14 9 -6 10 -12 4 -16 -12 -9 -12 -44 -1 -62 5 -7 1 -9 -10 -4 -15
6 -15 4 1 -21 10 -15 15 -29 11 -33 -3 -3 -6 -1 -6 5 0 7 -5 12 -10 12 -7 0
-7 -6 0 -20 8 -15 8 -20 -1 -20 -8 0 -8 -4 1 -15 9 -11 9 -15 1 -15 -9 0 -9
-5 -1 -20 8 -15 8 -20 -1 -20 -9 0 -9 -3 0 -14 9 -11 9 -15 -1 -19 -10 -4 -10
-6 1 -6 11 -1 11 -4 1 -16 -9 -11 -9 -15 -1 -15 7 0 9 -5 4 -12 -10 -18 -11
-68 0 -68 4 0 5 -6 0 -12 -11 -19 -12 -38 -2 -38 6 0 6 -8 -1 -19 -7 -14 -7
-22 2 -27 7 -5 8 -3 3 6 -5 9 -4 11 3 6 9 -5 8 -14 -4 -31 -10 -15 -12 -25 -5
-30 15 -9 14 -28 -1 -20 -7 4 -5 0 5 -8 20 -16 23 -32 5 -21 -10 6 -10 4 -3
-7 6 -8 10 -47 10 -86 0 -42 4 -73 10 -73 6 0 3 -5 -5 -10 -12 -8 -12 -10 -1
-10 9 0 12 -9 9 -30 -3 -16 -2 -30 1 -30 3 0 6 -22 6 -50 0 -27 3 -50 8 -50
12 0 8 -28 -5 -33 -9 -4 -8 -6 3 -6 12 -1 15 -11 13 -41 -1 -22 1 -40 5 -40 3
0 7 -21 9 -47 1 -25 7 -52 13 -60 9 -10 8 -13 -1 -13 -6 0 -10 -6 -7 -12 2 -7
9 -12 13 -11 5 1 9 -16 8 -38 0 -22 4 -39 10 -39 6 0 4 -5 -4 -10 -12 -8 -12
-10 5 -10 17 0 17 -2 5 -10 -8 -5 -10 -10 -3 -10 6 0 9 -9 6 -20 -3 -13 0 -20
8 -20 11 0 11 -2 -1 -10 -11 -7 -11 -10 -2 -10 7 0 10 -4 7 -10 -3 -5 -2 -10
3 -10 5 0 8 -11 7 -25 -2 -14 1 -25 6 -25 5 0 9 -5 9 -11 0 -5 -5 -7 -11 -3
-6 3 -4 -5 5 -18 9 -14 13 -28 9 -31 -3 -4 -1 -7 5 -7 7 0 12 -5 12 -11 0 -5
-5 -7 -11 -3 -6 3 -4 -5 5 -18 9 -14 13 -28 9 -31 -3 -4 -1 -7 7 -7 10 0 10
-3 0 -15 -10 -12 -10 -15 2 -15 10 0 13 -10 12 -30 -1 -16 2 -28 6 -25 4 3 10
-2 14 -10 3 -8 1 -15 -5 -15 -6 0 -7 -5 -4 -10 4 -6 11 -7 17 -4 7 5 7 1 0
-12 -8 -14 -6 -25 10 -46 10 -15 17 -32 14 -37 -4 -5 1 -17 10 -25 11 -12 12
-16 2 -16 -9 0 -9 -3 -2 -8 6 -4 16 -28 24 -55 7 -26 17 -47 21 -47 5 0 9 -11
9 -25 0 -14 5 -25 11 -25 6 0 9 -7 5 -15 -3 -8 0 -15 6 -15 7 0 6 -5 -2 -15
-11 -13 -10 -14 4 -9 12 4 16 0 16 -16 0 -14 4 -19 13 -14 8 5 8 2 -2 -9 -11
-13 -11 -17 -1 -17 8 0 11 -3 7 -6 -3 -4 0 -13 8 -21 8 -8 15 -23 15 -34 0
-10 5 -19 10 -19 6 0 10 -9 10 -20 0 -11 4 -20 10 -20 5 0 7 -7 4 -15 -4 -9 1
-18 11 -21 9 -4 14 -13 11 -20 -3 -7 2 -20 10 -29 8 -8 12 -19 9 -25 -3 -5 -1
-10 5 -10 6 0 8 -4 5 -10 -3 -5 1 -10 9 -10 10 0 13 -6 10 -15 -4 -8 -1 -15 6
-15 8 0 11 -9 8 -24 -4 -19 -1 -23 11 -18 9 3 13 1 8 -3 -4 -5 0 -17 10 -27 9
-10 12 -18 8 -18 -5 0 0 -7 11 -16 10 -8 13 -13 7 -9 -7 3 -13 2 -13 -4 0 -5
9 -13 20 -16 11 -4 18 -11 15 -16 -4 -5 1 -16 9 -25 9 -9 14 -20 11 -25 -4 -5
-2 -9 4 -9 8 0 25 -36 23 -50 0 -3 8 -8 19 -12 11 -4 17 -12 14 -18 -3 -6 1
-17 9 -26 9 -9 14 -20 11 -25 -4 -5 1 -9 10 -9 9 0 14 -4 10 -9 -3 -5 -1 -12
5 -16 6 -4 8 -10 5 -15 -3 -5 0 -12 6 -16 8 -5 9 -3 4 6 -5 9 -4 11 3 6 7 -4
12 -13 12 -21 0 -8 8 -19 17 -24 14 -8 15 -10 3 -11 -10 0 -7 -5 8 -16 12 -8
22 -22 22 -30 0 -8 7 -14 15 -14 8 0 12 -6 9 -13 -3 -8 2 -20 10 -27 9 -7 13
-16 10 -21 -3 -5 2 -6 11 -3 11 5 14 2 9 -10 -4 -10 0 -18 10 -22 9 -3 14 -9
11 -13 -2 -4 5 -14 16 -21 10 -8 19 -21 19 -28 0 -8 6 -12 14 -9 10 4 13 1 10
-8 -7 -17 20 -47 31 -37 5 4 5 2 2 -4 -4 -7 4 -23 18 -35 13 -13 25 -27 25
-31 0 -15 34 -47 43 -41 6 3 7 1 3 -5 -6 -11 13 -36 82 -108 18 -19 30 -34 27
-34 -4 0 0 -7 9 -15 8 -8 20 -15 26 -15 6 0 8 -4 5 -10 -3 -5 1 -10 9 -10 9 0
15 -3 15 -7 -3 -18 1 -36 7 -30 9 9 75 -64 67 -75 -3 -6 -1 -8 4 -5 6 4 21 -7
33 -23 13 -17 29 -30 36 -30 7 0 16 -5 20 -12 5 -7 2 -9 -7 -4 -8 4 -5 0 6 -8
49 -40 55 -47 49 -59 -5 -8 -2 -7 9 2 15 11 17 11 17 -2 0 -8 7 -18 16 -21 9
-3 12 -11 8 -18 -4 -7 -4 -10 0 -6 5 4 20 -4 34 -17 14 -13 29 -22 34 -19 4 3
5 -3 1 -12 -4 -11 -2 -15 4 -11 6 4 13 0 17 -8 3 -8 12 -15 20 -15 8 0 26 -15
40 -33 13 -17 43 -43 65 -57 22 -14 41 -31 41 -37 0 -12 5 -14 25 -13 10 1 35
-28 35 -39 0 -6 5 -11 11 -11 5 0 7 6 3 13 -4 6 10 -5 31 -25 20 -21 43 -38
50 -38 7 0 16 -7 19 -16 3 -8 10 -13 14 -10 5 3 14 -4 22 -14 8 -10 17 -17 22
-14 4 3 8 0 8 -7 0 -7 3 -10 6 -7 3 4 19 -8 35 -24 16 -17 29 -26 29 -20 0 7
12 2 26 -11 14 -12 43 -31 64 -43 22 -12 37 -24 33 -28 -3 -3 3 -6 15 -6 12 0
22 -4 22 -10 0 -5 7 -10 16 -10 9 0 12 -5 8 -12 -5 -7 -3 -8 5 -4 7 5 19 0 27
-10 9 -11 12 -12 8 -4 -6 11 -2 10 13 -3 11 -9 24 -14 28 -10 5 5 4 0 -3 -9
-11 -14 -10 -16 7 -11 13 3 21 1 21 -6 0 -7 4 -10 9 -6 5 3 16 -2 24 -10 9 -8
20 -15 25 -15 6 0 13 -6 15 -12 4 -10 6 -10 6 0 1 10 4 10 15 0 8 -7 12 -16
10 -19 -2 -4 6 -6 19 -5 15 1 21 -4 19 -14 -2 -8 0 -12 4 -7 4 4 16 -1 27 -10
11 -10 17 -12 13 -5 -4 6 -2 12 3 12 6 0 11 -4 11 -10 0 -5 7 -10 15 -10 8 0
15 -4 15 -10 0 -5 12 -10 26 -10 15 0 23 -4 19 -11 -4 -6 0 -9 11 -7 11 2 18
-2 17 -7 -1 -6 10 -12 25 -13 15 -1 29 -7 30 -12 2 -6 7 -8 12 -5 5 3 15 -2
24 -10 8 -9 18 -16 21 -15 21 1 25 -1 19 -12 -4 -7 -3 -8 4 -4 6 4 28 0 48 -9
20 -8 40 -12 45 -9 5 3 8 0 7 -8 -2 -8 7 -13 24 -12 15 0 26 -4 25 -10 -2 -10
4 -12 39 -15 8 0 13 -5 10 -9 -3 -4 8 -7 24 -6 23 2 27 -1 22 -15 -5 -14 -4
-14 11 -2 14 11 18 11 22 0 3 -8 17 -15 31 -16 15 0 30 -7 35 -15 7 -11 9 -10
9 1 0 11 4 9 15 -5 9 -12 14 -14 15 -6 0 7 5 10 10 7 6 -4 8 -10 6 -14 -3 -4
7 -7 22 -6 15 0 30 -4 35 -10 4 -6 11 -5 17 5 8 12 10 10 11 -10 0 -14 3 -19
6 -12 4 10 8 10 19 1 11 -9 14 -8 14 2 0 8 6 5 15 -7 8 -10 15 -15 15 -11 0 4
9 3 20 -3 15 -8 20 -8 20 2 0 10 2 10 9 -1 5 -8 23 -14 40 -15 17 0 33 -6 35
-13 3 -6 14 -9 25 -6 13 3 21 1 21 -7 0 -7 8 -9 20 -5 11 3 20 2 20 -3 0 -5
18 -8 41 -8 27 1 44 -4 49 -14 7 -11 9 -11 10 -2 0 7 5 10 10 7 6 -4 7 -11 4
-17 -5 -7 -2 -8 7 -2 19 12 39 14 39 4 0 -4 7 -11 16 -14 10 -4 13 -2 8 6 -5
8 -2 9 12 4 10 -4 24 -9 31 -10 7 -1 15 -5 19 -9 4 -3 16 -1 27 5 16 8 19 7
15 -3 -4 -11 6 -14 43 -13 27 1 49 -2 49 -7 0 -11 23 -7 32 6 4 6 8 1 9 -10
l0 -20 9 20 c7 16 9 16 9 4 1 -14 11 -17 56 -15 30 1 55 -1 55 -5 0 -4 16 -6
35 -5 19 1 35 -2 35 -7 0 -4 9 -3 20 3 11 6 20 7 20 1 0 -5 20 -8 45 -6 25 1
45 -2 45 -7 0 -5 6 -6 13 -1 17 11 37 13 37 3 0 -4 21 -6 47 -4 25 1 57 -2 70
-7 16 -6 22 -5 18 1 -3 6 -2 10 4 10 5 0 12 -6 14 -12 4 -10 6 -10 6 0 1 10 6
10 21 2 14 -8 20 -8 20 0 0 6 5 8 12 4 17 -11 97 -10 102 1 3 5 5 5 5 -2 1 -7
7 -10 15 -7 24 9 80 10 104 2 15 -5 21 -4 17 2 -4 7 3 9 19 6 14 -3 26 0 26 5
0 6 5 7 11 4 15 -10 59 -13 54 -5 -3 5 12 7 33 5 20 -1 45 2 56 7 13 7 16 7
12 -1 -4 -6 -2 -11 3 -11 6 0 11 4 11 9 0 5 7 12 16 15 8 3 13 2 10 -3 -3 -5
1 -11 9 -15 8 -3 19 3 24 12 6 9 11 12 11 6 0 -11 30 -15 30 -4 0 4 23 7 51 6
28 -1 53 3 57 8 3 5 -1 6 -8 1 -9 -5 -11 -4 -6 4 6 8 12 9 20 2 7 -6 15 -8 19
-5 4 5 36 10 105 16 6 1 12 6 12 11 0 5 7 4 15 -3 9 -7 15 -8 15 -2 0 6 11 9
24 8 14 -2 27 3 30 11 4 10 11 11 23 5 19 -10 46 -5 39 7 -3 4 4 7 14 7 10 0
17 -3 14 -7 -5 -9 17 -6 34 4 7 5 24 11 39 13 15 3 33 10 41 16 10 9 16 8 22
-1 5 -9 9 -10 14 -2 4 6 12 9 17 6 5 -4 9 -2 9 4 0 5 11 8 25 7 13 -2 22 0 20
5 -3 4 3 8 12 8 38 1 53 5 53 12 0 5 7 6 15 3 8 -4 15 -1 15 6 0 9 4 9 17 -1
10 -8 14 -9 10 -2 -4 6 -3 14 3 18 5 3 10 1 10 -6 0 -7 7 -4 16 7 8 10 13 13
9 7 -3 -7 -2 -13 4 -13 5 0 11 4 13 9 2 6 17 13 33 16 17 3 37 8 45 9 8 2 14
9 13 14 -2 6 4 9 12 6 9 -4 23 0 32 7 9 8 14 9 10 2 -5 -7 0 -9 13 -6 11 3 20
10 20 15 0 5 -5 6 -12 2 -7 -4 -8 -3 -4 5 5 7 13 8 24 2 11 -6 20 -4 30 7 7
10 11 11 7 5 -3 -7 -2 -13 3 -13 6 0 12 6 15 14 4 9 14 12 26 9 12 -3 21 -1
21 6 0 7 8 11 18 9 9 -2 16 3 14 10 -1 8 6 11 23 8 17 -3 23 -1 19 6 -5 7 -1
9 9 5 10 -3 17 -2 17 3 0 5 8 6 17 3 12 -5 15 -2 10 9 -4 12 -1 14 14 11 12
-3 19 0 19 8 0 11 2 11 10 -1 8 -13 10 -13 10 2 0 11 5 15 14 12 7 -3 20 2 29
10 8 8 17 12 21 9 3 -4 6 0 6 7 0 7 3 10 7 7 3 -4 13 -1 21 6 13 10 15 9 8 -3
-4 -9 -2 -8 7 2 8 10 17 15 20 11 4 -3 7 -1 7 5 0 7 3 11 8 11 20 -3 32 2 26
13 -4 6 -3 8 3 5 13 -8 63 14 63 28 0 6 5 3 10 -5 8 -13 10 -13 10 2 0 12 5
15 17 11 12 -5 15 -2 10 9 -4 12 -1 14 14 11 11 -3 21 1 25 11 3 9 10 13 16
10 5 -3 20 4 33 16 13 12 28 19 33 16 6 -3 12 1 16 9 3 8 15 15 26 15 11 0 23
7 26 15 4 8 10 12 15 9 5 -3 9 0 9 6 0 7 7 9 16 6 11 -4 15 -2 11 7 -3 8 3 14
15 14 12 1 30 11 43 23 12 11 24 17 28 14 4 -4 9 1 13 10 3 9 10 16 16 16 5 0
29 13 52 30 24 16 47 26 51 22 3 -4 5 0 3 8 -1 8 3 14 10 12 6 -1 12 3 12 10
0 6 3 8 7 4 4 -3 13 4 20 16 7 13 12 17 13 10 0 -7 5 -10 10 -7 6 4 8 11 5 16
-4 5 3 9 15 9 12 0 18 5 15 10 -3 6 -1 10 5 10 6 0 18 7 27 15 8 8 19 13 24
10 5 -4 6 2 2 12 -6 16 -5 17 12 3 10 -8 16 -10 12 -4 -8 15 18 38 33 29 6 -4
9 -3 8 2 -5 15 55 64 69 58 8 -3 11 0 8 6 -8 12 25 40 38 32 4 -2 6 0 5 5 -2
6 0 10 5 11 4 0 23 17 42 38 19 21 35 34 35 30 0 -4 6 -2 14 5 8 7 12 16 9 21
-2 4 3 7 12 7 10 0 13 5 9 12 -5 8 -2 9 9 5 12 -4 17 -1 17 10 0 9 3 14 6 11
7 -8 54 40 54 54 0 6 3 8 7 5 3 -4 13 2 20 13 8 11 20 17 26 14 7 -4 9 -4 5 0
-8 9 80 102 93 98 5 -1 9 5 9 13 0 13 11 19 31 17 4 -1 6 6 5 16 0 9 4 16 11
15 8 -2 10 4 6 15 -3 9 -3 14 1 10 8 -6 46 26 46 38 0 4 11 17 26 30 14 13 21
24 17 25 -4 0 2 4 15 10 13 5 20 13 17 19 -3 5 2 10 11 10 10 0 15 3 11 6 -8
8 16 33 26 27 4 -2 6 1 5 9 -2 7 3 12 10 10 8 -1 11 2 7 8 -3 5 11 26 32 47
21 20 31 32 23 27 -9 -5 -7 -1 3 8 11 10 15 18 11 18 -5 1 1 6 13 13 12 7 21
14 20 17 -2 12 61 89 68 82 4 -4 5 3 2 16 -3 12 -2 20 1 19 10 -5 42 30 35 37
-4 3 -1 6 6 6 7 0 10 4 7 8 -3 5 4 15 15 22 10 8 19 20 19 26 0 6 7 17 15 24
8 7 12 16 9 21 -3 5 0 8 8 7 7 -2 12 3 10 10 -1 6 3 12 10 12 6 0 9 3 6 6 -4
3 2 14 13 25 11 11 17 24 14 29 -4 6 -1 10 4 10 6 0 11 7 11 16 0 8 4 13 9 10
11 -7 23 22 14 36 -3 6 -1 8 5 4 6 -3 16 7 24 24 7 16 16 30 19 30 4 0 10 11
13 25 4 14 11 23 16 20 6 -3 7 1 4 9 -3 9 -1 16 5 16 6 0 11 9 11 21 0 11 5
17 10 14 6 -3 10 3 10 14 0 12 5 21 11 21 5 0 7 5 4 10 -3 6 -1 10 5 10 6 0 9
4 6 8 -3 5 4 16 15 25 11 10 17 22 14 27 -3 6 -1 10 6 10 8 0 8 5 -2 18 -7 9
-10 14 -5 10 11 -9 34 14 38 38 2 10 10 25 18 32 10 10 11 11 1 6 -7 -4 -4 7
9 24 12 16 20 35 16 40 -3 5 1 13 10 16 9 3 14 13 10 21 -3 8 3 19 12 24 9 6
13 11 8 11 -5 0 -1 10 10 22 10 12 13 18 7 14 -9 -5 -11 -2 -7 8 3 9 10 13 15
10 5 -3 6 2 3 10 -3 9 -1 16 5 16 6 0 8 7 4 15 -3 9 2 22 12 29 10 7 15 18 12
23 -4 6 -1 13 7 16 8 3 12 16 11 31 -2 14 2 29 7 33 7 4 8 1 3 -7 -5 -8 -4
-11 3 -6 6 3 9 15 7 26 -2 11 4 24 13 30 9 5 12 10 5 10 -6 0 -9 9 -6 20 3 11
9 18 13 15 7 -4 13 15 24 80 2 11 8 19 14 18 5 -1 8 7 4 19 -3 13 -1 19 5 15
6 -4 8 4 5 20 -3 18 -1 24 6 19 8 -5 10 -2 6 8 -4 10 -1 16 7 16 12 0 12 2 1
9 -11 6 -10 10 3 15 14 5 15 9 5 21 -10 12 -9 16 4 21 12 5 14 10 6 19 -8 9
-6 14 5 19 9 3 13 11 10 16 -4 6 -1 18 7 27 9 12 9 15 1 9 -9 -5 -11 -2 -7 8
3 9 9 14 13 11 4 -2 7 16 7 41 -1 25 3 48 8 52 5 3 6 0 2 -6 -4 -7 -2 -12 4
-12 7 0 9 12 6 30 -2 17 1 36 7 43 7 6 12 21 11 32 0 11 3 27 7 36 5 9 3 21
-4 28 -9 10 -8 11 5 6 13 -5 16 -1 13 29 -2 20 1 36 5 36 5 0 6 7 3 17 -5 11
-3 14 6 8 10 -6 11 -3 2 14 -7 12 -8 21 -2 21 5 0 8 16 6 35 -2 19 2 35 7 35
6 0 8 11 6 25 -3 14 -2 25 2 25 4 0 6 10 5 23 -1 12 2 28 8 34 6 8 6 13 0 13
-5 0 -10 7 -10 15 0 12 3 12 15 2 13 -10 14 -9 4 9 -6 11 -7 25 -3 32 4 6 7
36 6 66 0 30 3 52 8 49 4 -2 5 10 2 27 -3 17 -2 29 2 27 5 -3 8 38 7 91 0 54
5 103 10 111 9 12 8 13 -4 6 -13 -7 -13 -6 -2 7 10 13 10 17 0 21 -10 4 -10 6
0 6 6 1 12 7 12 15 0 8 -6 17 -12 19 -10 4 -10 6 0 6 6 1 12 7 12 15 0 8 -6
17 -12 19 -10 4 -10 6 0 6 16 1 16 28 0 34 -10 4 -10 6 0 6 6 1 12 7 12 15 0
8 -6 17 -12 19 -10 4 -10 6 0 6 6 1 12 7 12 15 0 8 -6 17 -12 19 -10 4 -10 6
0 6 6 1 12 8 12 16 0 8 -6 15 -12 15 -9 0 -10 2 -2 8 15 10 15 104 0 95 -6 -4
-5 1 3 10 10 13 10 17 1 17 -10 0 -10 3 -1 14 9 11 9 16 0 21 -8 6 -7 10 2 16
9 6 10 12 4 17 -6 4 -10 25 -10 47 0 22 -3 48 -7 58 -6 11 -5 17 3 17 8 0 7 5
-2 17 -12 14 -12 16 1 9 10 -5 9 -3 -2 6 -15 13 -15 15 0 26 9 7 12 10 6 7
-15 -6 -24 28 -13 46 4 7 4 18 0 24 -4 5 -7 26 -7 46 1 26 -3 35 -12 32 -8 -4
-10 0 -6 11 3 9 11 13 18 10 6 -3 4 1 -6 8 -12 10 -13 19 -7 31 7 11 7 17 0
17 -5 0 -8 17 -6 37 2 26 1 33 -7 22 -7 -11 -9 -9 -5 8 3 13 1 26 -4 29 -6 3
-5 11 2 20 8 10 8 14 0 14 -6 0 -9 13 -7 30 2 18 -1 30 -8 30 -6 0 -10 14 -10
32 1 18 -4 39 -10 47 -9 12 -8 13 4 7 8 -4 7 -1 -3 7 -12 10 -14 17 -8 22 8 4
8 12 1 26 -6 10 -8 19 -4 19 3 0 1 6 -5 14 -6 7 -9 21 -5 30 4 9 1 16 -6 16
-7 0 -10 8 -7 20 3 11 1 20 -4 20 -4 0 -5 7 -2 17 4 10 2 14 -4 10 -7 -4 -10
0 -8 10 1 10 -3 24 -9 32 -9 12 -8 13 4 6 12 -7 11 -3 -3 18 -10 15 -13 27 -7
27 7 0 4 7 -4 16 -15 14 -20 33 -17 60 1 6 -5 17 -13 23 -8 7 -13 18 -10 26 3
7 1 16 -5 19 -6 4 -8 13 -4 21 3 8 0 15 -5 15 -6 0 -9 9 -7 20 2 11 -1 22 -6
25 -5 4 -7 11 -3 16 3 5 0 17 -7 25 -12 15 -19 34 -21 62 -1 6 -5 12 -10 12
-5 0 -7 4 -4 9 4 5 2 11 -3 13 -8 2 -16 31 -20 71 -1 5 -5 6 -10 3 -5 -4 -8 2
-7 11 2 10 -4 24 -13 31 -12 10 -12 12 -1 6 12 -7 13 -5 3 8 -7 8 -10 18 -6
21 3 4 1 7 -6 7 -7 0 -9 5 -6 10 3 6 1 10 -6 10 -7 0 -9 3 -6 6 3 4 1 16 -5
28 -7 11 -12 25 -13 29 0 4 -7 12 -15 17 -13 8 -13 10 -1 10 11 0 10 4 -5 16
-10 8 -12 12 -4 8 10 -5 9 0 -4 14 -11 12 -16 22 -12 22 3 0 0 10 -9 23 -8 13
-12 27 -8 32 5 4 2 5 -4 1 -12 -6 -16 4 -12 30 0 4 -5 10 -11 14 -7 4 -13 19
-13 32 -1 15 -7 24 -14 21 -8 -3 -11 3 -8 17 2 13 2 20 -2 17 -8 -9 -32 24
-33 46 0 9 -4 17 -10 17 -5 0 -10 8 -10 18 0 11 -9 27 -20 37 -11 10 -20 25
-20 34 0 9 -9 27 -20 41 -11 14 -20 31 -20 38 0 7 -4 10 -10 7 -5 -3 -10 3
-10 14 0 12 -4 21 -10 21 -5 0 -10 9 -10 21 0 11 -4 18 -9 14 -5 -3 -11 5 -13
17 -2 13 -9 22 -16 21 -6 -2 -11 0 -10 5 4 13 -13 52 -23 52 -5 0 -9 7 -9 16
0 8 -4 12 -10 9 -5 -3 -10 3 -10 14 0 12 -4 21 -10 21 -5 0 -10 5 -10 11 0 7
-8 18 -17 26 -12 10 -13 12 -3 8 10 -4 9 -2 -2 8 -10 8 -15 17 -11 20 3 4 -2
7 -12 7 -10 0 -16 3 -12 6 3 4 1 12 -6 20 -27 31 -37 44 -37 50 0 4 -8 13 -17
21 -12 9 -13 12 -3 8 8 -4 3 5 -12 19 -16 14 -28 29 -28 35 0 5 -9 13 -21 16
-17 6 -18 9 -7 23 7 9 8 13 2 9 -7 -4 -15 0 -18 9 -3 8 -10 12 -16 9 -6 -4 -7
1 -3 11 4 12 3 15 -5 10 -11 -6 -17 5 -13 27 0 4 -6 7 -15 7 -9 0 -12 5 -8 12
5 8 2 9 -10 5 -10 -4 -15 -3 -11 3 8 12 -26 51 -38 43 -6 -3 -7 -1 -4 4 4 6 0
16 -8 23 -8 7 -12 17 -8 23 3 6 1 7 -5 3 -7 -4 -12 -2 -12 3 0 6 -7 11 -15 11
-9 0 -12 6 -9 15 4 10 0 15 -11 15 -9 0 -13 5 -10 10 3 6 -1 10 -9 10 -8 0
-18 5 -22 12 -5 7 -2 8 7 3 8 -4 -4 10 -26 33 -22 22 -43 38 -48 35 -4 -2 -6
1 -5 9 2 7 -3 12 -9 11 -12 -3 -17 9 -14 29 0 5 -5 7 -12 5 -6 -1 -11 4 -10
11 2 6 -2 12 -8 12 -5 0 -37 27 -69 60 -32 33 -67 60 -77 61 -10 0 -13 3 -6 6
10 3 10 8 -1 19 -8 8 -18 14 -23 14 -12 0 -48 43 -45 53 1 5 -2 6 -7 3 -5 -4
-12 -2 -16 4 -4 6 -12 7 -18 4 -7 -4 -9 -4 -5 1 8 9 -15 35 -32 35 -6 0 -9 4
-6 9 3 4 -6 13 -20 20 -14 6 -22 16 -18 22 4 8 -1 9 -15 4 -12 -3 -20 -3 -19
2 2 5 -8 20 -21 33 -13 14 -21 18 -16 10 4 -8 -3 -3 -16 11 -13 14 -30 24 -37
22 -8 -3 -10 1 -5 13 4 12 3 15 -5 10 -7 -4 -15 -1 -18 8 -3 9 -10 13 -15 10
-5 -3 -12 2 -15 10 -3 9 -12 16 -20 16 -8 0 -14 5 -14 12 0 6 -3 9 -6 5 -3 -3
-16 5 -28 17 -11 13 -27 21 -33 19 -7 -3 -13 2 -13 11 0 9 -3 15 -7 14 -14 -5
-53 29 -45 38 4 4 -2 2 -12 -6 -11 -8 -17 -10 -13 -4 6 11 -19 29 -35 26 -5
-1 -7 1 -7 6 3 19 -2 25 -11 12 -8 -13 -10 -12 -10 3 0 10 -4 15 -10 12 -5 -3
-10 -1 -10 4 0 6 -7 11 -16 11 -8 0 -12 4 -9 10 3 6 -1 7 -9 4 -9 -4 -18 0
-22 9 -3 9 -19 19 -35 22 -18 4 -29 13 -29 23 0 13 -2 14 -9 4 -7 -11 -9 -11
-14 2 -4 10 -13 13 -24 9 -16 -6 -17 -5 -3 12 8 10 9 16 3 11 -7 -4 -23 -1
-35 6 -13 7 -26 11 -30 10 -5 -1 -8 5 -8 14 0 8 -5 12 -11 8 -6 -3 -15 -1 -19
5 -4 7 -17 13 -28 14 -12 1 -22 7 -22 14 0 7 -9 10 -20 8 -11 -2 -18 0 -15 6
6 8 -8 13 -27 10 -12 -2 -9 14 5 28 10 11 10 13 0 7 -7 -4 -13 -2 -13 3 0 6 5
11 11 11 5 0 7 5 4 10 -3 6 -1 10 5 10 6 0 8 5 5 10 -3 6 -2 10 4 10 6 0 8 6
5 14 -3 7 2 20 10 29 19 19 21 31 4 21 -9 -5 -9 -2 1 9 7 9 10 17 5 17 -5 0
-4 4 1 8 14 10 36 74 23 66 -5 -4 -4 4 4 17 8 13 14 38 14 56 -1 20 3 28 9 23
7 -6 10 6 8 36 -1 25 1 42 6 39 11 -6 9 14 -3 33 -4 7 -4 12 1 11 20 -3 27 2
13 11 -12 8 -12 10 -1 10 11 0 11 3 1 15 -7 8 -8 15 -3 15 6 0 9 14 7 31 -3
22 0 28 9 23 9 -5 9 -4 0 6 -9 9 -9 19 -2 33 8 14 8 18 0 13 -6 -4 -11 -3 -11
3 0 5 5 13 10 16 8 5 8 11 0 20 -8 10 -8 15 0 20 8 5 8 11 -1 21 -9 11 -8 14
2 14 9 0 10 3 3 8 -6 4 -10 18 -10 32 0 14 -4 32 -9 39 -6 10 -4 12 6 7 8 -4
6 -1 -4 7 -17 14 -17 15 0 22 17 6 17 7 -1 20 -10 8 -16 21 -13 29 3 8 0 22
-8 32 -10 15 -11 22 -2 33 9 12 9 13 0 7 -12 -7 -17 6 -16 41 1 7 -3 11 -7 8
-4 -3 -11 2 -14 11 -4 10 -2 13 7 8 6 -4 2 3 -11 15 -12 12 -20 26 -17 32 4 5
1 9 -5 9 -6 0 -8 5 -5 10 3 6 -1 10 -9 10 -14 0 -20 12 -17 33 0 4 -6 7 -15 7
-8 0 -12 5 -9 10 3 6 0 10 -7 10 -7 0 -19 9 -26 20 -7 11 -19 20 -27 20 -8 0
-15 5 -15 11 0 5 -4 7 -10 4 -5 -3 -10 0 -10 7 0 9 -3 9 -10 -2 -7 -11 -10
-11 -10 -2 0 7 -4 11 -9 8 -5 -4 -12 0 -15 6 -5 10 -7 10 -12 1 -4 -9 -11 -10
-24 -3 -13 7 -21 7 -26 -1 -4 -8 -9 -7 -15 2 -7 11 -9 11 -9 -2 0 -10 -8 -15
-22 -14 -13 1 -31 -7 -40 -18 -10 -11 -18 -17 -18 -14 0 4 -9 -1 -19 -10 -11
-9 -18 -20 -15 -25 3 -4 -1 -5 -9 -2 -8 3 -23 -6 -34 -20 -11 -14 -24 -22 -28
-18 -5 4 -5 1 -1 -6 4 -7 1 -15 -9 -18 -9 -4 -14 -13 -11 -20 3 -9 0 -11 -11
-7 -11 4 -14 2 -9 -5 4 -7 2 -12 -4 -12 -7 0 -9 -7 -6 -16 3 -8 2 -12 -4 -9
-6 3 -13 -2 -17 -12 -4 -10 -13 -23 -21 -29 -8 -6 -12 -16 -8 -23 4 -6 4 -10
-1 -9 -4 2 -9 -1 -10 -6 0 -5 -8 -13 -17 -18 -9 -5 -16 -16 -16 -23 0 -8 -5
-15 -11 -15 -5 0 -8 -4 -5 -9 3 -5 -1 -12 -10 -15 -9 -4 -14 -13 -10 -21 3 -8
1 -15 -3 -15 -5 0 -14 -13 -20 -30 -5 -16 -15 -30 -21 -30 -6 0 -9 -4 -5 -9 3
-5 1 -12 -5 -16 -5 -3 -10 -15 -10 -26 0 -11 -4 -17 -10 -14 -5 3 -10 -3 -10
-14 0 -12 -5 -21 -11 -21 -6 0 -9 -9 -6 -20 3 -11 0 -18 -7 -17 -6 1 -10 -4
-8 -11 1 -7 -4 -15 -12 -18 -8 -3 -12 -12 -9 -20 3 -8 0 -14 -7 -14 -10 0 -9
-4 0 -16 11 -12 11 -15 -1 -12 -8 2 -14 -4 -14 -12 0 -8 -5 -18 -12 -23 -6 -4
-10 -18 -9 -31 2 -15 -1 -23 -8 -20 -7 3 -12 -5 -13 -17 -2 -28 -26 -44 -33
-23 -3 9 -9 15 -13 15 -21 -3 -28 0 -22 9 3 6 -1 10 -10 10 -9 0 -13 5 -10 10
3 6 -3 10 -14 10 -12 0 -21 5 -21 11 0 5 -4 7 -10 4 -5 -3 -10 -1 -10 5 0 6
-4 8 -10 5 -5 -3 -10 -1 -10 5 0 6 -4 8 -10 5 -5 -3 -10 2 -10 12 0 15 -2 16
-10 3 -7 -11 -10 -11 -10 -2 0 7 -4 10 -10 7 -5 -3 -10 -1 -10 5 0 6 -5 8 -11
5 -5 -4 -20 1 -31 12 -12 10 -18 12 -13 4 4 -8 -3 -6 -21 5 -15 11 -25 14 -21
7 5 -8 0 -9 -22 0 -17 6 -27 16 -25 21 3 6 -2 2 -10 -8 -10 -12 -16 -15 -16
-7 0 7 -6 11 -15 8 -8 -4 -17 -2 -21 4 -4 7 -10 6 -19 -1 -9 -8 -14 -6 -19 6
-6 15 -8 15 -28 -2 -21 -19 -21 -19 -14 1 6 16 5 18 -5 8 -16 -16 -33 -17 -23
-1 5 7 3 8 -7 2 -8 -4 -29 -9 -47 -10 -19 0 -38 -7 -43 -15 -6 -10 -9 -10 -9
-1 0 6 -7 12 -15 12 -8 0 -15 -6 -15 -12 0 -9 -4 -8 -10 2 -7 11 -10 12 -10 2
0 -8 -6 -12 -12 -9 -7 2 -29 -2 -50 -9 -20 -7 -40 -9 -44 -6 -4 4 -5 0 -1 -9
4 -13 -2 -16 -29 -14 -31 1 -45 -7 -26 -18 4 -2 1 -2 -6 0 -8 1 -19 3 -26 3
-7 0 -18 11 -24 25 -6 14 -18 25 -26 25 -10 0 -13 6 -9 17 4 10 2 14 -4 10 -6
-4 -19 0 -27 9 -9 8 -16 13 -16 9 0 -3 -11 6 -25 20 -24 23 -38 29 -57 26 -5
0 -8 4 -8 10 0 5 -5 7 -12 3 -8 -5 -9 -1 -4 12 5 15 4 16 -5 7 -12 -12 -42 -6
-34 7 3 5 -5 6 -17 2 -15 -4 -19 -2 -13 7 6 10 3 11 -14 2 -12 -7 -21 -8 -20
-4 3 20 -2 27 -11 13 -7 -11 -10 -11 -10 -2 0 7 -4 10 -10 7 -5 -3 -10 -1 -10
5 0 8 -6 7 -21 -1 -17 -9 -20 -8 -14 2 6 9 3 11 -8 6 -10 -3 -17 -3 -17 1 0 5
-13 7 -30 6 -16 -1 -30 3 -30 8 0 7 -5 7 -12 1 -7 -5 -59 -9 -115 -8 -55 0
-99 -3 -96 -7 4 -8 -5 -10 -44 -11 -13 0 -23 -6 -23 -14 0 -8 -5 -11 -10 -8
-6 4 -7 12 -3 18 3 7 -3 3 -15 -7 -12 -11 -22 -16 -22 -12 0 4 -7 0 -16 -9
-14 -13 -19 -14 -25 -4 -6 10 -9 9 -15 -4 -3 -9 -14 -17 -24 -17 -10 0 -20 -5
-22 -10 -2 -6 -13 -12 -25 -13 -12 0 -20 -4 -17 -9 6 -10 -32 -29 -41 -20 -5
4 -5 -1 -2 -11 4 -11 3 -16 -3 -12 -6 3 -10 0 -10 -7 0 -9 -3 -9 -10 2 -8 13
-10 13 -10 -2 0 -10 -9 -22 -19 -28 -11 -5 -22 -18 -25 -28 -5 -15 -45 -27
-44 -12 1 17 -4 19 -23 10 -17 -10 -21 -8 -26 8 -3 14 -11 19 -24 17 -10 -2
-19 0 -19 5 0 5 -7 6 -17 3 -10 -4 -14 -2 -9 5 7 12 -32 11 -52 -2 -8 -5 -10
-2 -6 9 5 11 2 14 -12 8 -12 -4 -15 -3 -9 6 6 10 3 11 -14 2 -14 -8 -21 -8
-21 -1 0 8 -6 8 -19 0 -16 -8 -22 -6 -30 7 -7 13 -10 14 -11 4 0 -8 -3 -11 -7
-8 -3 4 -12 2 -19 -3 -8 -8 -17 -6 -28 5 -9 9 -16 13 -16 8 0 -5 -17 -8 -37
-8 -21 0 -51 -6 -67 -13 -16 -8 -25 -9 -22 -3 8 12 -21 4 -41 -12 -9 -6 -13
-6 -13 2 0 7 -5 9 -10 6 -6 -4 -8 -11 -5 -16 3 -5 -1 -6 -10 -3 -8 4 -23 0
-32 -7 -14 -12 -16 -12 -9 1 6 12 5 11 -6 -1 -7 -9 -23 -15 -35 -14 -12 1 -20
-2 -17 -6 2 -4 -5 -10 -16 -14 -11 -3 -20 -10 -20 -15 0 -5 -9 -7 -20 -5 -11
2 -19 -1 -17 -8 1 -7 -4 -11 -10 -10 -7 2 -13 -3 -13 -11 0 -10 -7 -13 -20
-11 -11 2 -18 0 -15 -5 3 -5 -5 -16 -17 -24 -28 -20 -44 -21 -28 -1 9 11 9 15
1 15 -12 0 -34 48 -29 62 2 4 -6 13 -16 21 -11 8 -16 19 -12 25 4 7 2 12 -3
12 -6 0 -11 7 -11 16 0 8 -7 23 -16 31 -8 9 -13 24 -11 34 3 11 0 16 -8 13 -8
-3 -12 2 -12 13 1 10 -3 17 -10 16 -7 -2 -10 6 -8 17 2 11 0 20 -6 20 -5 0 -9
6 -9 14 0 24 -27 69 -33 54 -3 -7 -6 -1 -6 15 -1 15 -5 27 -11 27 -5 0 -10 8
-10 18 -1 21 -25 54 -33 45 -4 -3 -7 1 -7 10 0 10 -6 17 -12 17 -9 0 -8 4 2
10 10 6 11 10 3 10 -7 0 -13 7 -13 16 0 8 -4 12 -10 9 -9 -5 -15 10 -7 18 5 6
-28 35 -35 30 -5 -2 -8 3 -8 11 0 9 -5 16 -11 16 -5 0 -7 5 -4 10 3 6 -1 13
-9 16 -9 3 -16 12 -16 19 0 7 -18 27 -39 46 -22 18 -37 37 -35 41 3 4 -1 5 -9
2 -8 -3 -17 2 -20 10 -4 9 -14 16 -22 16 -9 0 -13 5 -10 11 4 6 0 9 -11 7 -11
-2 -18 2 -17 7 1 9 -18 15 -64 18 -7 0 -13 5 -13 11 0 6 -5 4 -10 -4 -6 -10
-10 -11 -10 -2 0 14 -6 14 -37 2z m-2313 -5560 c0 -5 -5 -10 -11 -10 -5 0 -7
5 -4 10 3 6 8 10 11 10 2 0 4 -4 4 -10z"/>
<path d="M2010 1126 c0 -2 8 -10 18 -17 15 -13 16 -12 3 4 -13 16 -21 21 -21
13z"/>
</g>
</svg>
