<?xml version="1.0" standalone="no"?>
<!DOCTYPE svg PUBLIC "-//W3C//DTD SVG 20010904//EN"
 "http://www.w3.org/TR/2001/REC-SVG-20010904/DTD/svg10.dtd">
<svg version="1.0" xmlns="http://www.w3.org/2000/svg"
 width="512.000000pt" height="512.000000pt" viewBox="0 0 512.000000 512.000000"
 preserveAspectRatio="xMidYMid meet">
<metadata>
Created by potrace 1.14, written by Peter Selinger 2001-2017
</metadata>
<g transform="translate(0.000000,512.000000) scale(0.100000,-0.100000)"
fill="#000000" stroke="none">
<path d="M3087 4973 c-35 -14 -94 -58 -123 -93 -7 -8 -29 -33 -49 -54 -20 -22
-47 -60 -61 -85 -13 -25 -35 -64 -48 -86 -29 -47 -76 -144 -76 -156 0 -5 -4
-9 -8 -9 -5 0 -25 -16 -45 -35 -38 -37 -52 -41 -89 -26 -13 5 -51 15 -85 22
-35 7 -63 17 -63 21 0 4 -8 8 -18 8 -10 0 -26 6 -37 13 -27 18 -98 33 -300 62
-93 13 -94 14 -97 53 -2 27 -9 40 -25 47 -12 5 -32 31 -44 57 -12 26 -29 48
-37 48 -8 0 -32 18 -53 40 -45 46 -59 49 -91 17 -57 -55 -130 -224 -143 -327
-7 -61 -18 -80 -46 -80 -11 0 -19 -5 -19 -11 0 -5 -4 -7 -10 -4 -5 3 -20 -1
-32 -9 -12 -9 -32 -16 -43 -16 -12 0 -25 -4 -31 -8 -5 -4 -36 -17 -69 -27 -33
-11 -69 -28 -79 -37 -11 -10 -29 -18 -40 -18 -41 0 -108 -61 -212 -191 -75
-94 -114 -159 -114 -189 0 -14 -16 -64 -36 -110 -33 -75 -37 -96 -39 -180 -2
-52 -1 -77 2 -55 6 52 20 66 15 15 -4 -44 8 -91 44 -165 29 -60 63 -106 64
-85 0 12 2 12 13 1 10 -11 10 -14 0 -18 -7 -3 -13 -9 -13 -15 0 -6 7 -8 14 -5
10 4 13 1 9 -9 -3 -8 8 -26 27 -44 l32 -30 -41 -37 c-23 -20 -41 -41 -41 -47
0 -6 -18 -31 -40 -54 -22 -24 -40 -52 -40 -62 0 -9 -6 -23 -13 -29 -8 -6 -25
-32 -38 -58 -13 -27 -28 -51 -34 -55 -5 -4 -10 -42 -10 -85 0 -58 -5 -86 -18
-106 -9 -15 -22 -27 -27 -27 -6 0 -10 -8 -10 -17 0 -10 -7 -27 -15 -37 -8 -11
-15 -32 -15 -46 0 -14 -6 -35 -14 -46 -8 -10 -11 -23 -7 -29 5 -5 11 -37 14
-70 4 -34 13 -77 22 -98 20 -50 19 -92 -6 -157 -16 -42 -21 -76 -21 -143 1
-80 -8 -121 -30 -137 -6 -5 -20 -77 -68 -343 -5 -27 -6 -62 -3 -78 4 -20 0
-35 -11 -48 -28 -31 -44 -110 -35 -172 10 -69 23 -112 43 -141 20 -28 20 -57
2 -83 -20 -29 -37 -200 -35 -350 1 -113 -2 -138 -21 -190 -13 -33 -25 -85 -27
-115 -1 -30 -7 -82 -12 -115 -24 -154 -31 -201 -31 -212 0 -9 19 -13 60 -13
53 0 60 2 60 19 0 11 4 22 9 25 5 4 27 79 48 167 36 153 40 162 66 171 19 7
27 17 27 34 0 13 -4 24 -9 24 -11 0 -36 64 -45 115 -13 81 -18 95 -27 89 -9
-5 -14 36 -10 86 5 77 71 286 95 302 7 5 7 8 1 8 -5 0 -4 4 4 9 12 8 13 14 3
35 -9 20 -19 26 -43 26 -18 0 -30 3 -27 6 3 3 -5 33 -18 67 -21 52 -23 66 -13
90 9 21 14 25 20 15 17 -26 29 16 29 103 0 47 3 114 7 149 4 46 3 61 -5 56 -8
-5 -10 -2 -6 8 3 9 10 13 15 10 5 -3 9 14 9 38 0 38 22 124 46 182 6 15 4 17
-6 11 -8 -5 -4 6 9 23 12 18 28 32 34 32 7 0 3 -7 -7 -15 -11 -8 -16 -18 -13
-22 4 -4 15 1 24 10 15 14 15 21 2 59 -8 24 -14 75 -14 113 0 63 4 76 33 122
l33 51 -21 61 c-11 33 -20 71 -20 85 0 14 -4 35 -9 49 -10 25 12 121 39 167 8
14 13 31 12 38 -3 10 1 10 16 1 11 -7 18 -18 15 -25 -6 -15 29 -95 56 -130 38
-48 120 -105 223 -155 31 -16 59 -33 63 -39 4 -6 16 -8 28 -5 12 2 16 2 10 -1
-21 -10 -14 -27 8 -21 12 3 18 3 15 0 -13 -13 73 -40 160 -51 154 -20 429 8
513 52 14 8 55 28 91 46 36 17 83 42 105 56 37 22 130 56 165 59 35 3 42 16
35 65 -5 37 -1 63 16 112 31 87 62 128 99 128 40 0 44 13 24 65 -13 36 -15 61
-9 123 4 42 7 88 7 101 0 16 3 20 8 11 6 -10 10 -8 19 7 5 11 7 24 3 28 -4 5
1 6 10 2 18 -6 31 14 22 37 -6 15 -54 40 -62 31 -8 -8 -60 68 -63 95 -3 21
-10 25 -40 26 -20 1 -57 11 -82 22 -25 11 -48 18 -51 14 -14 -13 -4 -33 22
-43 16 -7 22 -13 14 -16 -7 -3 -19 1 -27 7 -8 7 -15 8 -15 3 0 -5 11 -15 25
-21 31 -14 38 -15 30 -3 -9 16 35 35 48 22 8 -8 5 -11 -11 -11 -32 0 -27 -20
7 -26 21 -4 35 -16 46 -39 8 -19 31 -48 49 -66 30 -27 32 -34 20 -46 -14 -15
-44 -105 -44 -135 0 -10 5 -18 10 -18 6 0 10 -7 10 -16 0 -9 -5 -12 -12 -8 -8
5 -9 -5 -5 -40 6 -42 4 -48 -22 -72 -28 -25 -55 -72 -86 -148 -17 -43 -21
-121 -5 -111 6 3 10 3 10 0 0 -3 -21 -15 -47 -26 -104 -43 -271 -133 -266
-142 3 -6 1 -7 -6 -3 -7 4 -31 -1 -55 -12 -59 -28 -181 -52 -265 -52 -38 0
-71 -4 -73 -9 -5 -14 -247 18 -291 39 -22 11 -44 17 -50 13 -6 -4 -8 0 -4 9 4
12 -14 25 -71 53 -42 20 -101 56 -132 79 -30 24 -61 41 -69 38 -8 -2 -11 0 -7
6 3 5 -1 23 -9 38 -8 16 -15 23 -15 16 0 -7 4 -21 9 -31 15 -27 0 -42 -24 -24
-16 13 -17 15 -2 10 18 -7 25 17 8 27 -5 3 -7 15 -4 26 3 13 -5 35 -21 59 -15
21 -29 56 -32 77 -3 22 -13 58 -21 81 -15 41 -14 47 7 110 26 78 97 191 149
237 19 17 44 41 56 52 14 15 39 24 76 29 36 4 91 24 152 54 53 26 95 43 94 38
-1 -5 38 -23 87 -40 88 -30 89 -31 175 -18 105 15 174 37 197 62 19 21 44 25
44 8 0 -6 9 -8 21 -4 13 5 19 3 15 -3 -14 -23 153 -25 206 -2 20 9 20 10 -7 5
-25 -4 -27 -3 -12 6 27 16 60 4 80 -31 19 -31 46 -44 28 -13 -6 12 -5 20 6 28
12 9 14 21 9 48 -8 45 -33 54 -82 31 -34 -16 -35 -18 -15 -25 11 -5 21 -11 21
-13 0 -3 -11 -1 -25 4 -14 5 -52 7 -85 3 -64 -6 -141 10 -161 33 -18 22 -34
17 -70 -20 -37 -37 -80 -50 -212 -62 -48 -4 -86 -3 -100 4 -42 19 -130 52
-141 52 -6 0 -44 -16 -83 -35 -76 -37 -201 -69 -228 -59 -16 7 -21 -11 -6 -20
13 -9 6 -57 -10 -67 -20 -12 -27 1 -8 14 12 9 14 18 7 36 -4 13 -6 32 -3 42 4
10 1 24 -5 31 -39 46 -102 161 -97 179 3 11 -4 41 -15 66 -16 36 -19 59 -15
100 3 31 1 55 -5 59 -19 12 22 154 45 154 4 0 7 6 7 14 0 8 7 22 17 31 13 14
14 18 3 25 -8 5 -18 6 -22 4 -4 -3 -8 2 -8 11 0 15 3 14 29 -1 25 -15 32 -15
45 -5 9 8 16 18 16 24 0 5 11 25 25 43 14 18 25 36 25 41 0 17 91 123 106 123
8 0 35 11 58 25 45 26 86 65 69 65 -5 0 -18 -9 -28 -20 -10 -11 -25 -20 -34
-19 -14 0 -14 1 -1 6 8 3 25 15 37 26 13 11 26 18 29 14 4 -4 19 0 33 7 94 49
203 98 241 109 37 11 50 11 75 1 17 -7 41 -13 53 -14 33 0 182 79 182 96 0 8
10 18 22 23 l22 8 -22 5 c-13 4 -25 1 -30 -7 -21 -37 -212 -107 -212 -77 0 4
-10 13 -21 21 -19 11 -21 11 -16 -3 4 -10 1 -16 -8 -16 -24 0 -17 26 10 44 18
12 25 25 25 47 0 36 25 128 46 167 8 15 14 37 14 50 0 44 68 17 88 -35 6 -15
23 -63 38 -106 15 -44 32 -76 38 -74 16 6 56 -10 56 -23 0 -5 -10 -10 -22 -10
-12 0 -19 -3 -16 -6 4 -3 55 0 115 6 135 15 156 14 219 -10 28 -10 61 -16 73
-13 14 4 30 -2 44 -14 25 -22 107 -56 107 -44 0 4 -12 14 -27 21 -16 7 -23 15
-16 17 7 3 20 -3 29 -11 8 -9 27 -16 42 -17 l27 -1 -25 -7 c-33 -9 -19 -16 72
-35 43 -9 97 -25 120 -35 87 -38 103 -44 117 -42 7 1 10 -2 7 -8 -7 -11 47
-55 79 -65 29 -10 57 -36 84 -79 17 -29 28 -36 42 -32 11 4 19 2 19 -5 0 -6
-4 -8 -10 -5 -5 3 -10 1 -10 -4 0 -6 7 -11 15 -11 8 0 15 -6 15 -13 0 -15 51
-67 66 -67 16 0 77 -98 71 -114 -8 -21 34 -96 54 -96 21 0 68 -47 81 -80 10
-24 11 -24 19 -5 8 17 9 16 4 -6 -2 -14 5 -52 16 -85 29 -82 47 -248 31 -275
-11 -17 -10 -28 8 -65 12 -24 25 -44 30 -44 22 0 89 -160 110 -260 6 -32 10
-134 9 -242 -1 -139 1 -191 11 -203 8 -10 9 -15 1 -15 -6 0 -14 12 -17 26 -6
22 -8 24 -16 10 -5 -9 -6 -21 -2 -28 4 -6 3 -8 -4 -4 -12 7 -28 -75 -18 -99 3
-9 2 -13 -4 -10 -5 3 -16 -8 -24 -24 -12 -23 -13 -31 -3 -34 7 -4 6 -6 -4 -6
-24 -1 -33 -70 -12 -93 17 -19 49 -25 38 -8 -3 6 -1 10 5 10 7 0 9 -8 5 -20
-5 -15 -3 -18 9 -14 9 3 17 1 17 -5 2 -14 4 -21 13 -46 4 -11 13 -33 18 -48 8
-21 13 -25 20 -15 8 12 3 -25 -8 -60 -2 -7 5 -39 16 -71 23 -71 43 -216 31
-239 -5 -9 -15 -37 -23 -62 -14 -40 -14 -49 1 -80 9 -19 18 -37 21 -40 3 -3 5
-13 6 -22 2 -56 5 -68 20 -82 14 -15 11 -21 -10 -17 -5 1 -5 -28 -1 -66 4 -37
7 -109 6 -159 -1 -127 14 -278 32 -306 8 -12 27 -52 43 -88 15 -36 53 -99 83
-140 30 -41 56 -81 57 -88 4 -22 34 -63 44 -57 4 3 11 -1 13 -7 4 -10 6 -10 6
0 1 6 8 12 16 12 9 0 26 7 38 15 16 10 58 16 136 19 62 2 108 0 101 -4 -6 -4
7 -10 32 -13 23 -4 63 -11 88 -17 25 -6 63 -13 85 -17 22 -3 45 -9 50 -13 18
-14 135 -50 159 -50 14 0 27 -4 31 -10 3 -5 35 -23 70 -41 36 -17 65 -36 65
-40 0 -5 6 -9 14 -9 14 0 44 -32 76 -80 29 -43 59 -82 75 -99 9 -9 36 -43 61
-76 33 -43 53 -60 70 -61 23 -1 24 1 24 75 0 53 -5 83 -16 99 -10 14 -13 33
-9 50 6 29 -10 48 -98 115 -20 15 -37 33 -37 40 -1 7 -22 23 -49 35 -26 13
-62 36 -80 51 -23 20 -40 27 -58 23 -14 -3 -28 0 -32 5 -11 18 -109 63 -136
63 -18 0 -25 5 -25 19 0 22 -25 35 -46 23 -10 -5 -33 0 -62 14 -57 27 -238 50
-322 40 -124 -14 -145 -18 -148 -27 -4 -10 -35 -12 -45 -3 -3 3 -1 16 5 29 8
19 6 27 -13 46 -13 13 -27 23 -30 22 -4 -1 -5 5 -3 15 3 9 -6 29 -20 43 -28
30 -56 82 -56 104 0 8 -8 23 -18 33 -20 20 -34 93 -52 277 -6 60 -15 114 -20
120 -4 5 -11 53 -15 105 -5 62 -14 108 -26 133 -23 46 -23 55 -3 117 28 85 -1
387 -40 412 -5 3 -17 25 -26 48 -21 54 -80 128 -105 133 l-20 3 20 9 c49 21
66 53 72 138 3 45 12 94 19 108 12 25 27 147 28 239 1 115 -43 382 -65 396 -5
3 -9 14 -9 24 0 10 -15 30 -32 44 -76 59 -84 74 -48 83 18 5 20 14 20 112 -1
77 -5 111 -15 125 -8 11 -15 27 -15 36 0 8 -9 22 -20 30 -12 8 -20 26 -20 42
0 15 -4 28 -9 28 -12 0 -46 58 -55 93 -3 15 -11 27 -16 27 -6 0 -10 9 -10 20
0 11 -6 20 -14 20 -7 0 -19 7 -26 15 -8 10 -9 15 -1 15 12 0 -21 64 -50 96
-10 11 -19 26 -19 33 0 15 -40 69 -40 55 -1 -5 -9 9 -20 31 -12 25 -19 62 -20
98 0 31 -4 57 -10 57 -5 0 -10 12 -9 28 0 24 1 25 9 7 7 -18 8 -17 15 10 5 17
12 32 16 36 5 3 11 30 14 60 3 29 12 122 20 204 25 240 9 375 -45 375 -6 0
-21 6 -33 14 -19 12 -27 12 -60 -1z m-62 -96 c6 -6 4 -7 -5 -4 -22 7 -47 -14
-53 -43 -4 -21 -4 -20 -6 7 -1 24 4 33 19 38 11 3 20 11 20 17 0 7 3 7 8 2 4
-5 12 -13 17 -17z m87 -40 c11 -17 10 -129 -2 -226 -6 -46 -29 -150 -52 -230
-44 -158 -54 -226 -32 -217 8 3 11 0 7 -10 -5 -12 -11 -10 -33 11 -16 15 -33
24 -39 20 -7 -3 -10 -2 -9 4 4 14 -141 102 -155 94 -7 -3 -9 -3 -5 2 8 8 -23
40 -45 48 -8 3 -4 15 11 35 12 17 22 35 22 41 0 5 3 11 8 13 4 2 20 34 36 71
16 38 44 87 62 109 26 30 33 46 29 66 -4 22 -4 23 3 7 8 -17 12 -14 30 28 12
26 38 68 58 92 27 34 32 45 20 45 -9 0 -21 -10 -26 -22 -8 -22 -9 -22 -9 -2
-1 11 2 23 5 26 11 11 109 7 116 -5z m105 -29 c-3 -7 -5 -2 -5 12 0 14 2 19 5
13 2 -7 2 -19 0 -25z m-272 3 c-3 -6 -11 -11 -17 -11 -6 0 -6 6 2 15 14 17 26
13 15 -4z m-1155 -1 c0 -5 -7 -7 -15 -4 -8 4 -15 8 -15 10 0 2 7 4 15 4 8 0
15 -4 15 -10z m1182 -32 c-7 -7 -12 -8 -12 -2 0 6 3 14 7 17 3 4 9 5 12 2 2
-3 -1 -11 -7 -17z m-107 -83 c-10 -19 -19 -34 -22 -32 -2 3 4 21 13 41 10 19
19 34 22 32 2 -3 -4 -21 -13 -41z m-1143 -7 c-7 -7 -12 -8 -12 -2 0 14 12 26
19 19 2 -3 -1 -11 -7 -17z m-42 -35 c-11 -17 -11 -17 -6 0 3 10 6 24 7 30 0 9
2 9 5 0 3 -7 0 -20 -6 -30z m1527 -25 c-3 -7 -5 -2 -5 12 0 14 2 19 5 13 2 -7
2 -19 0 -25z m-1510 -8 c-6 -16 -15 -30 -19 -30 -12 0 -10 8 8 35 22 33 25 31
11 -5z m1192 4 c-6 -8 -17 -14 -23 -14 -6 0 -3 7 6 14 10 7 14 17 10 21 -4 5
-1 5 6 1 10 -6 10 -11 1 -22z m-1009 -6 c0 -19 -2 -20 -10 -8 -13 19 -13 30 0
30 6 0 10 -10 10 -22z m87 0 c-3 -8 -6 -5 -6 6 -1 11 2 17 5 13 3 -3 4 -12 1
-19z m875 -30 c-7 -7 -12 -8 -12 -2 0 6 3 14 7 17 3 4 9 5 12 2 2 -3 -1 -11
-7 -17z m-905 -20 c-3 -7 -5 -2 -5 12 0 14 2 19 5 13 2 -7 2 -19 0 -25z m38 2
c3 -5 1 -10 -4 -10 -6 0 -11 5 -11 10 0 6 2 10 4 10 3 0 8 -4 11 -10z m795
-74 c0 -3 -4 -8 -10 -11 -5 -3 -10 -1 -10 4 0 6 5 11 10 11 6 0 10 -2 10 -4z
m-555 -16 c-3 -5 -11 -10 -16 -10 -6 0 -7 5 -4 10 3 6 11 10 16 10 6 0 7 -4 4
-10z m65 0 c12 -8 12 -10 -5 -10 -11 0 -27 5 -35 10 -12 8 -12 10 5 10 11 0
27 -5 35 -10z m-660 -25 c0 -14 -4 -25 -9 -25 -4 0 -6 11 -3 25 2 14 6 25 8
25 2 0 4 -11 4 -25z m480 15 c-34 -11 -60 -11 -35 0 11 5 29 8 40 8 16 0 15
-2 -5 -8z m630 6 c0 -3 -4 -8 -10 -11 -5 -3 -10 -1 -10 4 0 6 5 11 10 11 6 0
10 -2 10 -4z m-1070 -10 c0 -3 -4 -8 -10 -11 -5 -3 -10 -1 -10 4 0 6 5 11 10
11 6 0 10 -2 10 -4z m664 -2 c9 -3 13 -10 10 -15 -7 -11 -51 -12 -58 0 -3 4 7
6 22 4 21 -4 24 -2 12 6 -17 12 -10 14 14 5z m56 -4 c0 -5 -8 -10 -17 -10 -15
0 -16 2 -3 10 19 12 20 12 20 0z m407 -6 c-3 -3 -12 -4 -19 -1 -8 3 -5 6 6 6
11 1 17 -2 13 -5z m-77 -8 c0 -2 -8 -10 -17 -17 -16 -13 -17 -12 -4 4 13 16
21 21 21 13z m-305 -16 c3 -5 1 -10 -4 -10 -6 0 -11 5 -11 10 0 6 2 10 4 10 3
0 8 -4 11 -10z m95 0 c0 -5 -6 -10 -14 -10 -8 0 -18 5 -21 10 -3 6 3 10 14 10
12 0 21 -4 21 -10z m247 -12 c-3 -8 -6 -5 -6 6 -1 11 2 17 5 13 3 -3 4 -12 1
-19z m-867 2 c0 -5 -5 -10 -11 -10 -5 0 -7 5 -4 10 3 6 8 10 11 10 2 0 4 -4 4
-10z m1207 -32 c-3 -7 -5 -2 -5 12 0 14 2 19 5 13 2 -7 2 -19 0 -25z m-580 16
c-3 -3 -12 -4 -19 -1 -8 3 -5 6 6 6 11 1 17 -2 13 -5z m-942 -24 c-3 -5 -15
-10 -27 -10 -13 0 -18 -5 -15 -14 4 -10 1 -13 -8 -9 -18 6 -10 22 19 33 29 12
38 12 31 0z m55 0 c0 -5 -2 -10 -4 -10 -2 0 -12 -3 -22 -7 -16 -6 -17 -5 -4
10 17 19 30 22 30 7z m180 5 c0 -2 -10 -10 -22 -16 -21 -11 -22 -11 -9 4 13
16 31 23 31 12z m827 -11 c-3 -3 -12 -4 -19 -1 -8 3 -5 6 6 6 11 1 17 -2 13
-5z m-1171 -38 c10 -8 16 -18 11 -22 -4 -4 -7 -2 -7 5 0 7 -3 10 -7 8 -5 -3
-14 1 -21 9 -17 18 -1 18 24 0z m1624 -1 c0 -8 -4 -15 -10 -15 -5 0 -7 7 -4
15 4 8 8 15 10 15 2 0 4 -7 4 -15z m-353 -21 c-3 -3 -12 -4 -19 -1 -8 3 -5 6
6 6 11 1 17 -2 13 -5z m43 -8 c0 -11 -19 -15 -25 -6 -3 5 1 10 9 10 9 0 16 -2
16 -4z m-1363 -22 c-3 -3 -12 -4 -19 -1 -8 3 -5 6 6 6 11 1 17 -2 13 -5z
m-132 -24 c-3 -5 -13 -10 -21 -10 -8 0 -12 5 -9 10 3 6 13 10 21 10 8 0 12 -4
9 -10z m1762 -32 c-3 -8 -6 -5 -6 6 -1 11 2 17 5 13 3 -3 4 -12 1 -19z m-1752
2 c-3 -5 -18 -9 -33 -9 l-27 1 30 8 c17 4 31 8 33 9 2 0 0 -3 -3 -9z m-102
-20 c-3 -11 -7 -20 -9 -20 -2 0 -4 9 -4 20 0 11 4 20 9 20 5 0 7 -9 4 -20z
m1712 10 c3 -5 2 -10 -4 -10 -5 0 -13 5 -16 10 -3 6 -2 10 4 10 5 0 13 -4 16
-10z m35 -20 c0 -5 -2 -10 -4 -10 -3 0 -8 5 -11 10 -3 6 -1 10 4 10 6 0 11 -4
11 -10z m-1777 -17 c-7 -2 -19 -2 -25 0 -7 3 -2 5 12 5 14 0 19 -2 13 -5z m67
-23 c-20 -13 -43 -13 -35 0 4 6 10 8 15 5 5 -3 12 0 15 6 4 5 10 8 13 4 4 -3
0 -10 -8 -15z m-65 -11 c4 -5 0 -18 -9 -28 -9 -10 -16 -23 -16 -29 0 -7 -8
-12 -17 -12 -13 0 -10 7 12 30 25 26 27 32 15 40 -9 6 -10 10 -3 10 6 0 15 -5
18 -11z m-58 -21 c-3 -8 -6 -5 -6 6 -1 11 2 17 5 13 3 -3 4 -12 1 -19z m1923
-19 c0 -6 -4 -7 -10 -4 -5 3 -10 11 -10 16 0 6 5 7 10 4 6 -3 10 -11 10 -16z
m-1943 -5 c-3 -3 -12 -4 -19 -1 -8 3 -5 6 6 6 11 1 17 -2 13 -5z m-32 -24 c3
-5 1 -10 -4 -10 -6 0 -11 5 -11 10 0 6 2 10 4 10 3 0 8 -4 11 -10z m38 -46
c-9 -18 -18 -32 -21 -30 -2 2 2 14 8 26 6 12 9 28 6 35 -3 9 0 12 9 9 12 -5
11 -11 -2 -40z m2027 21 c7 -9 10 -18 6 -22 -3 -3 -6 -1 -6 5 0 7 -7 12 -15
12 -8 0 -15 5 -15 10 0 15 16 12 30 -5z m-2085 -54 c-2 -2 -11 3 -19 12 -8 8
-12 17 -9 21 3 3 12 -2 19 -12 7 -9 11 -19 9 -21z m2105 -4 c13 -5 13 -6 -1
-6 -9 -1 -24 9 -35 22 -19 22 -19 22 1 6 11 -9 27 -19 35 -22z m-2184 -54
c-10 -10 -19 5 -10 18 6 11 8 11 12 0 2 -7 1 -15 -2 -18z m2243 -7 c-3 -3 -11
5 -18 17 -13 21 -12 21 5 5 10 -10 16 -20 13 -22z m65 8 c4 -10 1 -14 -6 -12
-15 5 -23 28 -10 28 5 0 13 -7 16 -16z m-53 -27 c-10 -9 -11 -8 -5 6 3 10 9
15 12 12 3 -3 0 -11 -7 -18z m-2251 -53 c0 -8 -5 -12 -10 -9 -6 4 -8 11 -5 16
9 14 15 11 15 -7z m-43 -74 c-8 -12 -13 -30 -10 -41 3 -10 0 -19 -6 -19 -5 0
-8 7 -5 15 4 8 1 15 -5 15 -6 0 -11 5 -11 11 0 5 5 7 11 3 9 -5 10 2 6 22 -3
16 -4 23 -1 17 8 -19 24 -16 25 5 0 10 3 12 6 5 2 -7 -2 -22 -10 -33z m2360 8
c-3 -8 -6 -5 -6 6 -1 11 2 17 5 13 3 -3 4 -12 1 -19z m-2411 -100 c-19 -26
-20 -20 -5 19 6 15 13 22 16 16 2 -7 -3 -23 -11 -35z m2511 20 c-3 -8 -6 -5
-6 6 -1 11 2 17 5 13 3 -3 4 -12 1 -19z m-2468 -67 l-2 -26 -4 28 c-2 15 -9
27 -14 27 -5 0 -9 5 -9 11 0 8 5 8 15 -1 8 -7 14 -24 14 -39z m-14 -199 c4
-12 3 -14 -5 -6 -6 6 -13 44 -15 85 l-4 74 9 -68 c5 -38 11 -76 15 -85z m2523
93 c0 -16 -2 -15 -8 5 -11 34 -11 60 0 35 5 -11 8 -29 8 -40z m-2511 -52 c-2
-16 -4 -5 -4 22 0 28 2 40 4 28 2 -13 2 -35 0 -50z m32 -23 c0 -9 -4 -8 -9 5
-5 11 -9 27 -9 35 0 9 4 8 9 -5 5 -11 9 -27 9 -35z m2498 -67 c-3 -10 -5 -4
-5 12 0 17 2 24 5 18 2 -7 2 -21 0 -30z m-2502 -33 c3 -5 1 -10 -4 -10 -6 0
-11 5 -11 10 0 6 2 10 4 10 3 0 8 -4 11 -10z m2512 -22 c-3 -8 -6 -5 -6 6 -1
11 2 17 5 13 3 -3 4 -12 1 -19z m-2460 -10 c-3 -8 -6 -5 -6 6 -1 11 2 17 5 13
3 -3 4 -12 1 -19z m889 -19 c-27 -22 -36 -24 -36 -8 0 5 4 7 10 4 5 -3 15 3
22 14 6 11 16 17 20 15 5 -3 -2 -14 -16 -25z m-481 -9 c3 -5 -1 -10 -9 -10 -9
0 -16 5 -16 10 0 6 4 10 9 10 6 0 13 -4 16 -10z m-375 -26 c0 -8 -4 -14 -8
-14 -4 0 -8 9 -8 19 0 11 4 17 8 15 4 -3 8 -12 8 -20z m1075 16 c-3 -5 -14
-10 -23 -10 -15 0 -15 2 -2 10 20 13 33 13 25 0z m1345 -10 c0 -5 -4 -10 -10
-10 -5 0 -10 5 -10 10 0 6 5 10 10 10 6 0 10 -4 10 -10z m-2115 -10 c3 -5 -1
-10 -10 -10 -9 0 -13 5 -10 10 3 6 8 10 10 10 2 0 7 -4 10 -10z m505 0 c0 -5
-7 -10 -16 -10 -8 0 -12 5 -9 10 3 6 10 10 16 10 5 0 9 -4 9 -10z m-323 -6
c-3 -3 -12 -4 -19 -1 -8 3 -5 6 6 6 11 1 17 -2 13 -5z m-202 -22 c-3 -3 -11 0
-18 7 -9 10 -8 11 6 5 10 -3 15 -9 12 -12z m475 8 c-8 -5 -26 -9 -40 -9 -23 1
-23 2 5 9 43 11 52 11 35 0z m1657 -12 c-3 -8 -6 -5 -6 6 -1 11 2 17 5 13 3
-3 4 -12 1 -19z m-1847 2 c0 -12 -34 -12 -70 0 -20 7 -16 8 23 9 26 1 47 -3
47 -9z m730 -10 c13 -8 13 -10 -2 -10 -9 0 -20 5 -23 10 -8 13 5 13 25 0z
m-1110 -10 c0 -5 -18 -10 -40 -10 -26 0 -42 -6 -48 -16 -7 -12 -11 -13 -17 -5
-4 7 -5 14 -2 17 3 4 65 18 100 23 4 1 7 -3 7 -9z m47 4 c-3 -3 -12 -4 -19 -1
-8 3 -5 6 6 6 11 1 17 -2 13 -5z m380 0 c-3 -3 -12 -4 -19 -1 -8 3 -5 6 6 6
11 1 17 -2 13 -5z m781 -42 c2 -12 -2 -22 -8 -22 -7 0 -9 8 -5 21 6 19 4 21
-14 16 -12 -3 -19 -1 -15 4 10 17 39 5 42 -19z m1108 -47 c2 -48 1 -48 -11
-19 -7 16 -9 33 -4 39 14 15 10 28 -7 21 -9 -3 -12 -2 -9 5 14 22 29 0 31 -46z
m-1105 -12 c-12 -20 -14 -14 -5 12 4 9 9 14 11 11 3 -2 0 -13 -6 -23z m34 -3
c3 -5 1 -10 -4 -10 -6 0 -11 5 -11 10 0 6 2 10 4 10 3 0 8 -4 11 -10z m79 -59
c-7 -9 -34 10 -34 24 0 13 3 12 18 -2 10 -10 17 -20 16 -22z m-34 -16 c0 -5
-5 -3 -10 5 -5 8 -10 20 -10 25 0 6 5 3 10 -5 5 -8 10 -19 10 -25z m-1576 -46
c-24 -27 -29 -16 -8 16 10 16 20 23 22 16 2 -7 -4 -21 -14 -32z m2676 10 c0
-11 -4 -17 -10 -14 -5 3 -10 13 -10 21 0 8 5 14 10 14 6 0 10 -9 10 -21z m-11
-71 c1 -5 -3 -8 -9 -8 -5 0 -10 12 -9 28 0 24 1 25 9 7 5 -11 9 -23 9 -27z
m-2693 10 c4 -7 3 -8 -4 -4 -7 4 -12 1 -12 -6 0 -13 -39 -69 -40 -56 0 8 40
78 45 78 2 0 7 -5 11 -12z m1571 -30 c-3 -7 -5 -2 -5 12 0 14 2 19 5 13 2 -7
2 -19 0 -25z m1140 10 c-3 -8 -6 -5 -6 6 -1 11 2 17 5 13 3 -3 4 -12 1 -19z
m-20 -70 c-3 -8 -6 -5 -6 6 -1 11 2 17 5 13 3 -3 4 -12 1 -19z m-2727 2 c0 -5
-4 -10 -10 -10 -5 0 -10 5 -10 10 0 6 5 10 10 10 6 0 10 -4 10 -10z m2747 -12
c-3 -8 -6 -5 -6 6 -1 11 2 17 5 13 3 -3 4 -12 1 -19z m-2800 -75 c-3 -10 -5
-4 -5 12 0 17 2 24 5 18 2 -7 2 -21 0 -30z m2790 -40 c-2 -16 -4 -3 -4 27 0
30 2 43 4 28 2 -16 2 -40 0 -55z m-1120 -15 c-3 -7 -5 -2 -5 12 0 14 2 19 5
13 2 -7 2 -19 0 -25z m-1617 1 c0 -5 -4 -9 -10 -9 -5 0 -10 7 -10 16 0 8 5 12
10 9 6 -3 10 -10 10 -16z m1572 -19 c-12 -12 -22 -18 -22 -14 0 12 33 45 38
39 3 -3 -4 -14 -16 -25z m-1619 5 c-3 -9 -8 -14 -10 -11 -3 3 -2 9 2 15 9 16
15 13 8 -4z m2827 -11 c0 -8 -4 -12 -10 -9 -5 3 -10 10 -10 16 0 5 5 9 10 9 6
0 10 -7 10 -16z m-1248 -16 c-7 -7 -12 -8 -12 -2 0 14 12 26 19 19 2 -3 -1
-11 -7 -17z m-1585 -20 c-3 -8 -6 -5 -6 6 -1 11 2 17 5 13 3 -3 4 -12 1 -19z
m2790 -15 c-3 -10 -5 -4 -5 12 0 17 2 24 5 18 2 -7 2 -21 0 -30z m-1224 2 c-3
-9 -8 -14 -10 -11 -3 3 -2 9 2 15 9 16 15 13 8 -4z m-1545 -29 c-7 -8 -15 -12
-17 -11 -5 6 10 25 20 25 5 0 4 -6 -3 -14z m0 -36 c-7 -10 -14 -17 -17 -15 -4
4 18 35 25 35 2 0 -1 -9 -8 -20z m1520 -23 c-15 -31 -15 -31 -14 1 1 19 5 28
13 25 10 -4 10 -10 1 -26z m-1621 -49 c-3 -8 -6 -5 -6 6 -1 11 2 17 5 13 3 -3
4 -12 1 -19z m201 -3 c-3 -3 -9 2 -12 12 -6 14 -5 15 5 6 7 -7 10 -15 7 -18z
m2669 -7 c-3 -7 -5 -2 -5 12 0 14 2 19 5 13 2 -7 2 -19 0 -25z m-2883 -33 c-4
-8 -8 -15 -10 -15 -2 0 -4 7 -4 15 0 8 4 15 10 15 5 0 7 -7 4 -15z m63 -47
c-3 -7 -5 -2 -5 12 0 14 2 19 5 13 2 -7 2 -19 0 -25z m218 22 c3 -5 -1 -10
-10 -10 -9 0 -13 5 -10 10 3 6 8 10 10 10 2 0 7 -4 10 -10z m-248 -42 c-3 -7
-5 -2 -5 12 0 14 2 19 5 13 2 -7 2 -19 0 -25z m1560 26 c-3 -3 -12 -4 -19 -1
-8 3 -5 6 6 6 11 1 17 -2 13 -5z m-1232 -33 c-6 -5 -25 10 -25 20 0 5 6 4 14
-3 8 -7 12 -15 11 -17z m1165 9 c-8 -5 -19 -10 -25 -10 -5 0 -3 5 5 10 8 5 20
10 25 10 6 0 3 -5 -5 -10z m-1523 -32 c-3 -8 -6 -5 -6 6 -1 11 2 17 5 13 3 -3
4 -12 1 -19z m1438 -7 c-6 -5 -23 -12 -40 -16 l-30 -6 30 15 c35 17 53 20 40
7z m-1005 -21 c8 -5 11 -10 5 -10 -5 0 -17 5 -25 10 -8 5 -10 10 -5 10 6 0 17
-5 25 -10z m60 -30 c-8 -5 -19 -10 -25 -10 -5 0 -3 5 5 10 8 5 20 10 25 10 6
0 3 -5 -5 -10z m850 0 c-20 -13 -33 -13 -25 0 3 6 14 10 23 10 15 0 15 -2 2
-10z m-815 -30 c3 -5 -1 -10 -9 -10 -9 0 -16 5 -16 10 0 6 4 10 9 10 6 0 13
-4 16 -10z m737 -12 c-9 -9 -15 -9 -24 0 -9 9 -7 12 12 12 19 0 21 -3 12 -12z
m1510 -23 c3 -14 1 -25 -3 -25 -5 0 -9 11 -9 25 0 14 2 25 4 25 2 0 6 -11 8
-25z m-1561 -8 c-10 -9 -11 -8 -5 6 3 10 9 15 12 12 3 -3 0 -11 -7 -18z m-66
3 c-18 -8 -18 -9 5 -10 14 -1 19 -4 12 -7 -18 -7 -44 5 -37 17 3 5 14 10 23 9
14 0 13 -2 -3 -9z m-1038 -32 c-3 -7 -5 -2 -5 12 0 14 2 19 5 13 2 -7 2 -19 0
-25z m878 12 c-14 -6 -2 -9 45 -11 61 -2 62 -3 16 -6 -58 -5 -99 3 -91 17 3 6
16 10 28 9 21 0 21 -1 2 -9z m-338 -6 c-3 -3 -12 -4 -19 -1 -8 3 -5 6 6 6 11
1 17 -2 13 -5z m206 -11 c-7 -2 -19 -2 -25 0 -7 3 -2 5 12 5 14 0 19 -2 13 -5z
m-50 -10 c-7 -2 -19 -2 -25 0 -7 3 -2 5 12 5 14 0 19 -2 13 -5z m120 0 c-7 -2
-19 -2 -25 0 -7 3 -2 5 12 5 14 0 19 -2 13 -5z m-866 -65 c-3 -8 -6 -5 -6 6
-1 11 2 17 5 13 3 -3 4 -12 1 -19z m2819 -3 c9 -37 0 -40 -13 -5 -6 17 -7 30
-2 30 5 0 11 -11 15 -25z m-2826 -45 c0 -5 -4 -10 -10 -10 -5 0 -10 5 -10 10
0 6 5 10 10 10 6 0 10 -4 10 -10z m3 -73 c3 -22 2 -35 -4 -32 -5 4 -9 22 -9
42 0 45 5 40 13 -10z m-54 -37 l-1 -25 -8 25 c-4 14 -8 32 -9 40 -1 13 0 13 9
0 5 -8 9 -26 9 -40z m41 -60 c5 0 10 5 12 12 3 7 7 8 10 3 3 -6 -8 -22 -24
-37 -19 -18 -27 -21 -23 -10 4 9 8 33 8 52 0 29 0 30 4 8 2 -16 8 -28 13 -28z
m2887 -22 c-3 -8 -6 -5 -6 6 -1 11 2 17 5 13 3 -3 4 -12 1 -19z m37 -28 c4
-25 3 -31 -4 -20 -5 8 -10 26 -10 39 0 32 6 24 14 -19z m-2964 -20 c0 -5 -4
-10 -10 -10 -5 0 -10 5 -10 10 0 6 5 10 10 10 6 0 10 -4 10 -10z m2939 -30 c0
-10 -3 -8 -9 5 -12 27 -12 43 0 25 5 -8 9 -22 9 -30z m-2962 -127 c-3 -10 -5
-2 -5 17 0 19 2 27 5 18 2 -10 2 -26 0 -35z m2985 13 c3 -14 2 -30 -2 -36 -4
-6 -7 5 -8 25 -2 40 4 46 10 11z m-3015 -18 c-3 -8 -6 -5 -6 6 -1 11 2 17 5
13 3 -3 4 -12 1 -19z m2988 2 c3 -5 1 -10 -4 -10 -6 0 -11 5 -11 10 0 6 2 10
4 10 3 0 8 -4 11 -10z m-8 -52 c-3 -7 -5 -2 -5 12 0 14 2 19 5 13 2 -7 2 -19
0 -25z m-2984 -37 c-4 -3 -11 -10 -15 -15 -5 -5 -8 0 -8 12 0 15 4 20 16 15 9
-3 12 -9 7 -12z m2972 -1 c3 -5 1 -10 -4 -10 -6 0 -11 5 -11 10 0 6 2 10 4 10
3 0 8 -4 11 -10z m12 -52 c-3 -8 -6 -5 -6 6 -1 11 2 17 5 13 3 -3 4 -12 1 -19z
m29 -54 c-4 -20 -10 -34 -12 -31 -3 3 -2 21 2 41 3 21 9 35 11 32 3 -3 2 -21
-1 -42z m11 -36 c-3 -8 -6 -5 -6 6 -1 11 2 17 5 13 3 -3 4 -12 1 -19z m-3030
-10 c-3 -8 -6 -5 -6 6 -1 11 2 17 5 13 3 -3 4 -12 1 -19z m-22 -8 c-3 -5 -12
-10 -18 -10 -7 0 -6 4 3 10 19 12 23 12 15 0z m42 -62 c-2 -13 -4 -3 -4 22 0
25 2 35 4 23 2 -13 2 -33 0 -45z m-67 2 c0 -11 -4 -20 -9 -20 -5 0 -7 9 -4 20
3 11 7 20 9 20 2 0 4 -9 4 -20z m3068 -16 c4 2 8 -17 8 -42 2 -52 -11 -37 -19
23 -3 22 -3 34 0 27 2 -6 8 -10 11 -8z m-3001 -36 c-3 -8 -6 -5 -6 6 -1 11 2
17 5 13 3 -3 4 -12 1 -19z m-120 -60 c-3 -7 -5 -2 -5 12 0 14 2 19 5 13 2 -7
2 -19 0 -25z m63 -22 c0 -8 -4 -18 -10 -21 -5 -3 -10 3 -10 14 0 12 5 21 10
21 6 0 10 -6 10 -14z m-49 -57 c-5 -13 -10 -19 -10 -12 -1 15 10 45 15 40 3
-2 0 -15 -5 -28z m164 -110 c11 -17 2 -18 -19 -3 -17 12 -17 14 -4 14 9 0 20
-5 23 -11z m-52 -26 c-7 -2 -19 -2 -25 0 -7 3 -2 5 12 5 14 0 19 -2 13 -5z
m-16 -45 c-3 -7 -5 -2 -5 12 0 14 2 19 5 13 2 -7 2 -19 0 -25z m43 28 c0 -3
-4 -8 -10 -11 -5 -3 -10 -1 -10 4 0 6 5 11 10 11 6 0 10 -2 10 -4z m2977 -18
c-3 -8 -6 -5 -6 6 -1 11 2 17 5 13 3 -3 4 -12 1 -19z m53 -160 c0 -19 -2 -20
-10 -8 -13 19 -13 30 0 30 6 0 10 -10 10 -22z m-3130 -62 c0 -3 -4 -8 -10 -11
-5 -3 -10 -1 -10 4 0 6 5 11 10 11 6 0 10 -2 10 -4z m3159 -36 c0 -10 -3 -8
-9 5 -12 27 -12 43 0 25 5 -8 9 -22 9 -30z m-3157 -42 c-6 -6 -7 0 -4 19 5 21
7 23 10 9 2 -10 0 -22 -6 -28z m-25 10 c-3 -8 -6 -5 -6 6 -1 11 2 17 5 13 3
-3 4 -12 1 -19z m3221 -33 c-3 -3 -9 2 -12 12 -6 14 -5 15 5 6 7 -7 10 -15 7
-18z m32 -36 c0 -6 -4 -7 -10 -4 -5 3 -10 11 -10 16 0 6 5 7 10 4 6 -3 10 -11
10 -16z m-3253 -11 c-3 -8 -6 -5 -6 6 -1 11 2 17 5 13 3 -3 4 -12 1 -19z
m3298 -28 c3 -5 -3 -10 -15 -10 -12 0 -18 5 -15 10 3 6 10 10 15 10 5 0 12 -4
15 -10z m22 -42 c-3 -8 -6 -5 -6 6 -1 11 2 17 5 13 3 -3 4 -12 1 -19z m663 2
c0 -5 -2 -10 -4 -10 -3 0 -8 5 -11 10 -3 6 -1 10 4 10 6 0 11 -4 11 -10z m-83
-16 c-3 -3 -12 -4 -19 -1 -8 3 -5 6 6 6 11 1 17 -2 13 -5z m-569 -44 c-2 -7
-10 1 -17 16 -12 27 -11 28 4 12 10 -9 16 -21 13 -28z m69 34 c-3 -3 -12 -4
-19 -1 -8 3 -5 6 6 6 11 1 17 -2 13 -5z m62 -8 c-2 -2 -17 -6 -34 -10 -22 -5
-26 -4 -15 4 14 9 59 15 49 6z m296 -16 c17 -7 15 -9 -12 -9 -17 -1 -35 4 -38
9 -7 12 22 12 50 0z m62 -16 c-3 -3 -12 -4 -19 -1 -8 3 -5 6 6 6 11 1 17 -2
13 -5z m-3850 -56 c-3 -8 -6 -5 -6 6 -1 11 2 17 5 13 3 -3 4 -12 1 -19z m3990
16 c-3 -3 -12 -4 -19 -1 -8 3 -5 6 6 6 11 1 17 -2 13 -5z m108 -4 c-3 -5 -14
-10 -23 -9 -14 0 -13 2 3 9 27 11 27 11 20 0z m52 4 c-3 -3 -12 -4 -19 -1 -8
3 -5 6 6 6 11 1 17 -2 13 -5z m167 -53 c4 -5 -5 -4 -19 2 -14 7 -25 16 -25 20
0 9 36 -9 44 -22z m-4169 9 c3 -5 1 -10 -4 -10 -6 0 -11 5 -11 10 0 6 2 10 4
10 3 0 8 -4 11 -10z m4005 0 c0 -5 -2 -10 -4 -10 -3 0 -8 5 -11 10 -3 6 -1 10
4 10 6 0 11 -4 11 -10z m-4030 -43 c-14 -8 -27 -12 -30 -10 -7 6 23 23 40 23
8 0 4 -6 -10 -13z m4067 7 c-3 -3 -12 -4 -19 -1 -8 3 -5 6 6 6 11 1 17 -2 13
-5z m49 -19 c20 -19 4 -20 -22 0 -12 9 -14 14 -6 15 7 0 20 -7 28 -15z m-4264
-30 c-2 -14 -6 -25 -8 -25 -2 0 -4 11 -4 25 0 14 4 25 9 25 4 0 6 -11 3 -25z
m38 -16 c0 -5 -4 -9 -10 -9 -5 0 -10 7 -10 16 0 8 5 12 10 9 6 -3 10 -10 10
-16z m17 -136 c-3 -10 -5 -2 -5 17 0 19 2 27 5 18 2 -10 2 -26 0 -35z m37 32
c-4 -8 -8 -15 -10 -15 -2 0 -4 7 -4 15 0 8 4 15 10 15 5 0 7 -7 4 -15z m4334
-21 c-4 -3 -12 5 -18 18 -12 22 -12 22 6 6 10 -10 15 -20 12 -24z m32 -47 c11
-5 9 -6 -4 -4 -11 1 -21 9 -23 17 -3 10 -2 11 4 4 4 -6 15 -14 23 -17z m100
13 c0 -5 -5 -10 -11 -10 -5 0 -7 5 -4 10 3 6 8 10 11 10 2 0 4 -4 4 -10z
m-4480 -25 c0 -8 -2 -15 -4 -15 -2 0 -6 7 -10 15 -3 8 -1 15 4 15 6 0 10 -7
10 -15z m-33 -37 c-3 -8 -6 -5 -6 6 -1 11 2 17 5 13 3 -3 4 -12 1 -19z m4477
-34 c9 -24 2 -26 -12 -4 -7 11 -8 20 -3 20 5 0 12 -7 15 -16z m48 -41 c5 -7 5
-13 0 -17 -15 -9 -22 5 -21 38 1 21 3 25 6 11 3 -11 9 -25 15 -32z"/>
<path d="M2084 3203 c-59 -49 -58 -101 1 -161 44 -43 46 -44 95 -40 54 5 66
15 96 77 20 42 10 86 -28 114 -39 29 -135 35 -164 10z"/>
<path d="M920 2926 c0 -24 20 -69 39 -91 13 -14 20 -43 24 -100 6 -87 26 -156
47 -163 9 -3 11 3 6 24 -11 44 -26 186 -20 195 2 4 26 20 52 34 45 25 101 89
89 102 -4 3 -34 -6 -67 -21 -34 -14 -66 -26 -72 -26 -5 0 -27 14 -48 30 -43
34 -50 36 -50 16z"/>
</g>
</svg>
